# Blender 4.1.1
# www.blender.org
mtllib gangplankexporttest.mtl
o GP_Base
v 3.232108 -0.027174 -0.055197
v 3.232108 -0.027174 0.065432
v -2.765848 -0.028871 0.065434
v -2.765848 -0.028871 -0.055196
v 0.233130 -0.028023 -0.055197
v 0.233130 -0.028023 0.065433
v -1.266359 -0.028447 0.065433
v -1.266359 -0.028447 -0.055196
v 1.732619 -0.027598 -0.055197
v 1.732619 -0.027598 0.065432
v -3.450000 0.018432 0.139368
v -3.439366 0.018432 0.150001
v -3.439366 0.029065 0.139368
v -3.449999 -0.018432 0.139368
v -3.439366 -0.029065 0.139368
v -3.439366 -0.018432 0.150001
v -3.450000 0.018432 -0.139366
v -3.439366 0.029065 -0.139366
v -3.439366 0.018432 -0.149999
v -3.439366 -0.018432 -0.149999
v -3.439366 -0.029065 -0.139366
v -3.449999 -0.018432 -0.139366
v 3.449999 0.018432 0.139366
v 3.439366 0.029065 0.139366
v 3.439366 0.018432 0.149999
v 3.449999 -0.018432 0.139366
v 3.439366 -0.018432 0.149999
v 3.439366 -0.029065 0.139366
v 3.449999 0.018432 -0.139368
v 3.439366 0.018432 -0.150001
v 3.439366 0.029065 -0.139368
v 3.449999 -0.018432 -0.139368
v 3.439366 -0.029065 -0.139368
v 3.439366 -0.018432 -0.150001
v 3.283164 -0.018432 0.149999
v 3.284904 -0.028820 0.139368
v 3.378427 -0.030331 0.139441
v 3.382690 -0.018432 0.149999
v 3.283164 0.018432 -0.150001
v 3.285004 0.029325 -0.139371
v 3.378185 0.027728 -0.139452
v 3.382690 0.018432 -0.150001
v 3.285004 -0.028806 -0.139371
v 3.283164 -0.018432 -0.150001
v 3.382690 -0.018432 -0.150001
v 3.378185 -0.030403 -0.139452
v 3.382690 0.018432 0.149999
v 3.378427 0.027800 0.139441
v 3.284904 0.029311 0.139368
v 3.283164 0.018432 0.149999
v -3.439366 -0.029062 0.065434
v -3.450000 -0.018432 0.071268
v -3.450000 -0.018432 -0.061029
v -3.439366 -0.029062 -0.055195
v 3.439418 0.028021 0.065592
v 3.450000 0.018432 0.065432
v 3.450000 0.018432 -0.055198
v 3.439418 0.028021 -0.056908
v -3.439367 0.029068 0.097327
v -3.450000 0.018432 0.091493
v -3.450000 0.018432 -0.081255
v -3.439367 0.029068 -0.087089
v 3.439418 -0.030110 -0.056908
v 3.450000 -0.018432 -0.055198
v 3.450000 -0.018432 0.065432
v 3.439418 -0.030110 0.065592
v 3.296752 -0.016515 0.056330
v 3.307386 -0.018654 0.066963
v 3.286311 -0.027392 0.077554
v 3.296752 -0.016515 -0.060860
v 3.286309 -0.027399 -0.082084
v 3.307386 -0.018654 -0.071493
v 3.338530 -0.025707 -0.071493
v 3.359586 -0.037888 -0.081855
v 3.349163 -0.028385 -0.060860
v 3.349163 -0.028385 0.056330
v 3.359572 -0.037905 0.077346
v 3.338530 -0.025707 0.066963
v 3.349163 0.008479 -0.060860
v 3.359586 0.020243 -0.081855
v 3.338530 0.010618 -0.071493
v 3.349163 0.008479 0.056330
v 3.338530 0.010618 0.066963
v 3.359572 0.020226 0.077346
v 3.307386 0.017671 -0.071493
v 3.286303 0.030716 -0.082076
v 3.296752 0.020349 -0.060860
v 3.296752 0.020349 0.056330
v 3.286304 0.030724 0.077546
v 3.307386 0.017671 0.066963
v 3.195127 -0.018432 0.149999
v 3.199775 -0.028828 0.139368
v 3.199274 -0.028853 -0.139370
v 3.195127 -0.018432 -0.150001
v 3.200255 0.029447 0.139372
v 3.195127 0.018432 0.149999
v 3.195127 0.018432 -0.150001
v 3.199421 0.029385 -0.139372
v 3.220552 0.020324 -0.076458
v 3.231181 0.030801 -0.097720
v 3.209918 0.020321 -0.087091
v 3.209918 0.020321 0.097325
v 3.231181 0.030770 0.107952
v 3.220552 0.020324 0.086692
v 3.209923 0.009687 -0.076458
v 3.220552 0.020324 -0.076458
v 3.209918 0.020321 -0.087091
v 3.209918 0.020321 0.097325
v 3.220552 0.020324 0.086692
v 3.209923 0.009687 0.086692
v -2.765848 -0.029041 0.139368
v -2.765848 -0.018432 0.150001
v -2.765848 0.018432 0.150001
v -2.765848 0.029105 0.139368
v -2.765848 0.029098 -0.139366
v -2.765848 0.018432 -0.149999
v -2.776482 0.029257 -0.097723
v -2.765848 0.018626 -0.087089
v -2.765848 -0.018432 -0.149999
v -2.765848 -0.029044 -0.139366
v -2.776482 0.029257 0.107961
v -2.765848 0.018626 0.097327
v -2.765848 0.007993 -0.076456
v -2.765848 0.018626 -0.087089
v -2.765848 0.018626 0.097327
v -2.765848 0.007993 0.086694
v 0.214639 -0.018432 -0.150000
v 0.216713 -0.028948 -0.139367
v 0.224784 0.029898 0.107957
v 0.227352 0.019475 0.097326
v 0.227352 0.019475 0.097326
v 0.227354 0.008842 0.086693
v 0.214639 0.018432 -0.150000
v 0.216787 0.029242 -0.139368
v 0.217205 0.029276 0.139369
v 0.214639 0.018432 0.150000
v 0.214639 -0.018432 0.150000
v 0.216964 -0.028934 0.139367
v 0.225201 0.029932 -0.097722
v 0.227352 0.019475 -0.087090
v 0.227352 0.019475 -0.087090
v 0.227354 0.008842 -0.076457
v -1.274530 0.029170 -0.139367
v -1.275604 0.018432 -0.150000
v -1.275604 0.018432 0.150000
v -1.274322 0.029190 0.139368
v -1.274442 -0.028988 0.139367
v -1.275604 -0.018432 0.150000
v -1.269248 0.019051 -0.087090
v -1.270323 0.029579 -0.097722
v -1.269247 0.008417 -0.076456
v -1.269248 0.019051 -0.087090
v -1.274567 -0.028996 -0.139366
v -1.275604 -0.018432 -0.150000
v -1.269248 0.019051 0.097327
v -1.270532 0.029559 0.107959
v -1.269247 0.008417 0.086693
v -1.269248 0.019051 0.097327
v 1.707994 -0.028901 -0.139368
v 1.704883 -0.018432 -0.150001
v 1.723952 0.019899 0.097326
v 1.720101 0.030237 0.107955
v 1.723955 0.009266 0.086692
v 1.723952 0.019899 0.097326
v 1.708105 0.029313 -0.139370
v 1.704883 0.018432 -0.150001
v 1.704883 0.018432 0.149999
v 1.708730 0.029361 0.139370
v 1.708370 -0.028881 0.139368
v 1.704883 -0.018432 0.149999
v 1.723952 0.019899 -0.087091
v 1.720727 0.030285 -0.097721
v 1.723955 0.009266 -0.076457
v 1.723952 0.019899 -0.087091
vn -0.0206 -0.9181 0.3958
vn 0.0002 -0.9298 0.3680
vn -0.0009 -0.9999 -0.0100
vn 0.0581 -0.9929 -0.1036
vn -0.9239 -0.3827 -0.0000
vn -0.9239 0.3826 -0.0000
vn 0.4388 -0.8985 -0.0124
vn -0.1011 -0.9936 0.0505
vn 0.0080 -0.9073 -0.4203
vn 0.3696 -0.8551 -0.3636
vn -0.3416 0.8752 0.3424
vn -0.0001 0.9038 0.4279
vn 0.1607 0.9870 0.0010
vn -0.3828 0.9238 0.0006
vn 0.3681 -0.8555 0.3642
vn 0.0062 -0.9076 0.4197
vn -0.1010 -0.9935 -0.0525
vn 0.4375 -0.8991 0.0145
vn -0.1025 0.9830 0.1520
vn 0.3256 0.9454 0.0125
vn 0.3135 0.8942 -0.3196
vn -0.0080 0.9381 -0.3463
vn -0.0062 0.9379 0.3468
vn 0.3151 0.8938 0.3190
vn 0.3269 0.9449 -0.0146
vn -0.1023 0.9834 -0.1500
vn 0.0013 -0.3690 -0.9294
vn -0.0013 0.3953 -0.9186
vn 0.3406 0.3495 -0.8728
vn 0.3426 -0.3331 -0.8784
vn 0.0590 -0.9929 0.1030
vn -0.0202 -0.9174 -0.3976
vn 0.0012 0.9142 0.4053
vn 0.0232 0.9273 0.3737
vn 0.1422 0.9850 -0.0980
vn -0.0940 0.9925 -0.0783
vn -0.0000 -0.3872 -0.9220
vn -0.0000 0.3764 -0.9264
vn 0.0015 0.3845 -0.9231
vn -0.0014 -0.3796 -0.9252
vn 0.8781 -0.3347 -0.3418
vn 0.8731 0.3481 -0.3414
vn 0.9165 0.4000 0.0011
vn 0.9310 -0.3650 -0.0011
vn -0.0961 0.9920 0.0816
vn 0.1417 0.9850 0.0984
vn 0.0223 0.9282 -0.3715
vn 0.0007 0.9156 -0.4022
vn -0.0006 -1.0000 0.0084
vn 0.0007 -0.9294 -0.3692
vn 0.3426 -0.3335 0.8783
vn 0.3407 0.3491 0.8730
vn -0.0012 0.3946 0.9188
vn 0.0012 -0.3697 0.9291
vn -0.8756 0.3416 -0.3416
vn -0.8756 -0.3416 -0.3416
vn -0.0014 -0.3800 0.9250
vn 0.0015 0.3839 0.9234
vn 0.0001 0.3755 0.9268
vn -0.0000 -0.3875 0.9219
vn 0.1636 0.9865 -0.0008
vn -0.3828 0.9238 -0.0005
vn -0.3493 -0.4969 -0.7944
vn 0.1667 -0.4950 -0.8527
vn 0.3479 0.4791 -0.8058
vn -0.1749 0.4757 -0.8620
vn 0.1668 -0.4949 0.8528
vn -0.3491 -0.4969 0.7945
vn -0.1752 0.4753 0.8622
vn 0.3477 0.4789 0.8060
vn 0.8258 -0.4872 -0.2841
vn 0.8258 -0.4871 0.2842
vn 0.8355 0.5052 0.2161
vn 0.8355 0.5051 -0.2161
vn 0.0001 -0.9242 0.3819
vn -0.3415 -0.8758 0.3411
vn -0.3825 -0.9239 -0.0003
vn 0.0002 -1.0000 -0.0006
vn 0.9309 -0.3654 0.0014
vn 0.9167 0.3995 -0.0013
vn 0.8732 0.3480 0.3412
vn 0.8780 -0.3348 0.3420
vn -0.8246 -0.5242 0.2126
vn -0.8247 -0.5241 -0.2127
vn -0.8360 0.4673 -0.2876
vn -0.8360 0.4672 0.2877
vn 0.0001 -0.9287 0.3708
vn 0.0002 -1.0000 -0.0089
vn 0.0002 -1.0000 0.0079
vn -0.8237 0.5057 -0.2564
vn -0.8230 0.5060 0.2582
vn -0.8735 0.3422 0.3463
vn -0.8744 0.3419 -0.3444
vn -0.0001 0.9156 0.4021
vn -0.0002 0.9317 -0.3631
vn -0.0002 0.9304 0.3666
vn -0.0001 0.9170 -0.3989
vn -0.2506 0.5045 0.8262
vn -0.0001 0.3871 0.9220
vn -0.0001 0.3827 0.9239
vn -0.3369 0.3408 0.8777
vn -0.3419 0.8755 0.3416
vn -0.0003 0.9239 0.3827
vn -0.0003 0.9239 -0.3827
vn -0.3419 0.8755 -0.3416
vn 0.0002 -1.0000 0.0056
vn 0.0002 -1.0000 0.0033
vn 0.0001 -0.9257 -0.3782
vn 0.0001 -0.9270 -0.3751
vn 1.0000 -0.0000 -0.0000
vn -0.0000 -0.3829 0.9238
vn -0.0000 0.3823 0.9241
vn -0.3415 0.3413 0.8757
vn -0.3416 -0.3417 0.8755
vn -0.0001 0.9091 -0.4166
vn -0.3416 0.8753 -0.3423
vn 0.0002 -1.0000 0.0005
vn -0.3825 -0.9239 0.0003
vn -0.3415 -0.8758 -0.3412
vn 0.0001 -0.9242 -0.3820
vn -0.0001 0.4459 -0.8951
vn -0.0001 0.3852 -0.9228
vn -0.0001 0.3827 -0.9239
vn -0.0001 0.9359 0.3523
vn -0.0001 0.9205 0.3909
vn -0.0002 0.9272 -0.3746
vn -0.0002 0.9453 -0.3262
vn 0.9993 0.0377 -0.0000
vn 0.0001 -0.9259 0.3777
vn 0.0001 -0.9253 0.3794
vn 0.0002 -1.0000 -0.0024
vn 0.0002 -1.0000 -0.0037
vn -0.3416 -0.3417 -0.8755
vn -0.3415 0.3414 -0.8757
vn -0.0000 0.3823 -0.9240
vn -0.0000 -0.3829 -0.9238
vn 0.0002 -1.0000 0.0021
vn 0.0001 -0.9251 -0.3797
vn -0.0000 -0.3855 0.9227
vn -0.0000 0.3782 0.9257
vn -0.0000 0.3800 0.9250
vn -0.0000 -0.3843 0.9232
vn 0.0001 -0.9273 0.3742
vn 0.0002 -1.0000 -0.0063
vn -0.0000 -0.3842 -0.9233
vn -0.0000 0.3804 -0.9248
vn -0.0000 0.3789 -0.9254
vn -0.0000 -0.3852 -0.9228
vn -0.0001 0.3866 0.9223
vn -0.0001 0.3848 0.9230
vn -0.0002 0.9286 0.3711
vn -0.0001 0.9191 -0.3940
vn -0.0001 0.9182 0.3962
vn -0.0002 0.9295 -0.3688
vn -0.0001 0.3873 -0.9219
vn -0.0000 -0.3866 0.9222
vn -0.0000 0.3764 0.9265
vn -0.0001 0.4456 0.8952
vn -0.0002 0.9488 0.3158
vn -0.0002 0.9267 0.3759
vn -0.0001 0.9210 -0.3895
vn -0.0001 0.9333 -0.3592
vn -0.0000 -0.3837 -0.9235
vn -0.0000 0.3812 -0.9245
vn -0.0000 0.3774 -0.9261
vn -0.0000 -0.3862 -0.9224
vn -0.0000 0.3809 0.9246
vn -0.0000 -0.3838 0.9234
vn -0.0001 0.3880 -0.9217
vn -0.2521 0.5057 -0.8250
vn -0.3388 0.3411 -0.8768
vn 0.0001 -0.9282 -0.3721
vn -0.8756 0.3416 0.3416
vn -0.8756 -0.3416 0.3416
vn 0.7070 0.7072 -0.0000
vt 0.570836 0.023927
vt 0.570836 0.036264
vt 0.501098 0.031577
vt 0.512532 0.023722
vt 0.894551 0.985136
vt 0.894551 0.965962
vt 0.929321 0.963031
vt 0.929321 0.988067
vt 0.385709 0.001534
vt 0.362212 0.013114
vt 0.307853 0.010408
vt 0.307921 0.001539
vt 0.024973 0.998456
vt 0.024973 0.900844
vt 0.054596 0.902386
vt 0.064626 0.998455
vt 0.570845 0.001539
vt 0.570905 0.010373
vt 0.512310 0.013115
vt 0.501251 0.001534
vt 0.233591 0.013113
vt 0.210097 0.001534
vt 0.287885 0.001539
vt 0.287953 0.010408
vt 0.024901 0.010373
vt 0.024961 0.001539
vt 0.094555 0.001534
vt 0.083494 0.013114
vt 0.854433 0.009755
vt 0.819663 0.009755
vt 0.819663 0.001541
vt 0.854433 0.001541
vt 0.362009 0.023713
vt 0.307930 0.023912
vt 0.307854 0.010408
vt 0.362163 0.013111
vt 0.570836 0.023927
vt 0.512485 0.023712
vt 0.512362 0.013114
vt 0.570905 0.010373
vt 0.024967 0.036195
vt 0.024971 0.023927
vt 0.083280 0.023723
vt 0.054612 0.031712
vt 0.854433 0.036938
vt 0.819663 0.036938
vt 0.819663 0.024179
vt 0.854433 0.024179
vt 0.894551 0.912614
vt 0.929321 0.912614
vt 0.929321 0.924813
vt 0.894551 0.924813
vt 0.248587 0.031712
vt 0.233839 0.023723
vt 0.287877 0.023912
vt 0.287879 0.036315
vt 0.361963 0.023722
vt 0.387321 0.031577
vt 0.307931 0.036337
vt 0.307929 0.023912
vt 0.799603 0.998459
vt 0.764833 0.998459
vt 0.764833 0.990245
vt 0.799604 0.990245
vt 0.929321 0.996489
vt 0.894551 0.996489
vt 0.929321 0.988067
vt 0.799604 0.975821
vt 0.764833 0.975821
vt 0.764833 0.963062
vt 0.799604 0.963062
vt 0.248596 0.902386
vt 0.238567 0.998456
vt 0.054596 0.902385
vt 0.978938 0.075075
vt 0.949563 0.074053
vt 0.949563 0.068788
vt 0.978938 0.069811
vt 0.978938 0.084198
vt 0.949563 0.085220
vt 0.949563 0.079956
vt 0.978938 0.078933
vt 0.361962 0.023722
vt 0.512532 0.023722
vt 0.984333 0.001541
vt 0.984333 0.018525
vt 0.949563 0.018525
vt 0.949563 0.001541
vt 0.210097 0.001534
vt 0.233622 0.013105
vt 0.083464 0.013108
vt 0.094555 0.001534
vt 0.570833 0.900843
vt 0.570833 0.998454
vt 0.501099 0.998454
vt 0.501099 0.900843
vt 0.894551 0.942295
vt 0.929321 0.942295
vt 0.929321 0.953010
vt 0.894551 0.953010
vt 0.984333 0.021607
vt 0.984333 0.038591
vt 0.949563 0.038591
vt 0.949563 0.021607
vt 0.233838 0.023723
vt 0.248593 0.031712
vt 0.054604 0.031712
vt 0.083283 0.023723
vt 0.024901 0.010373
vt 0.083441 0.013114
vt 0.083330 0.023713
vt 0.024970 0.023927
vt 0.570836 0.036264
vt 0.570835 0.252409
vt 0.501099 0.248894
vt 0.387321 0.248894
vt 0.949563 0.065318
vt 0.949563 0.041673
vt 0.949563 0.041673
vt 0.233640 0.013111
vt 0.287952 0.010408
vt 0.287877 0.023912
vt 0.233790 0.023714
vt 0.024969 0.252357
vt 0.024967 0.036195
vt 0.054609 0.031712
vt 0.054601 0.250709
vt 0.248594 0.250618
vt 0.248589 0.031712
vt 0.287879 0.036315
vt 0.287877 0.252448
vt 0.894551 0.001541
vt 0.894551 0.216899
vt 0.894551 0.001541
vt 0.744775 0.001541
vt 0.744775 0.216898
vt 0.590892 0.216898
vt 0.590892 0.001541
vt 0.387321 0.466210
vt 0.387322 0.683527
vt 0.307932 0.684717
vt 0.307932 0.468590
vt 0.894551 0.875229
vt 0.904580 0.876770
vt 0.904580 0.900415
vt 0.894551 0.901956
vt 0.894551 0.875229
vt 0.799604 0.099152
vt 0.764834 0.099152
vt 0.764834 0.001541
vt 0.799604 0.001541
vt 0.238567 0.998456
vt 0.248596 0.902386
vt 0.287874 0.900845
vt 0.287874 0.998455
vt 0.387322 0.900843
vt 0.387322 0.998454
vt 0.307933 0.998454
vt 0.307933 0.900843
vt 0.874492 0.867595
vt 0.874492 0.650696
vt 0.024973 0.900844
vt 0.024973 0.684682
vt 0.054597 0.684133
vt 0.054597 0.902385
vt 0.884525 0.873688
vt 0.884668 0.869136
vt 0.894734 0.867595
vt 0.929504 0.867595
vt 0.939511 0.869136
vt 0.939350 0.879851
vt 0.939350 0.897334
vt 0.939513 0.909532
vt 0.929504 0.911073
vt 0.894734 0.911073
vt 0.884674 0.909532
vt 0.884525 0.903497
vt 0.894551 0.901956
vt 0.570834 0.684698
vt 0.501099 0.683527
vt 0.854433 0.998459
vt 0.819663 0.998459
vt 0.819663 0.900848
vt 0.854433 0.900848
vt 0.362181 0.013106
vt 0.385709 0.001534
vt 0.501251 0.001534
vt 0.512340 0.013108
vt 0.307933 0.900843
vt 0.799604 0.531107
vt 0.764834 0.531107
vt 0.764834 0.315130
vt 0.799604 0.315130
vt 0.570834 0.468554
vt 0.570834 0.684698
vt 0.501099 0.466210
vt 0.854433 0.684870
vt 0.819663 0.684870
vt 0.819663 0.468893
vt 0.854433 0.468893
vt 0.894551 0.433797
vt 0.894551 0.650696
vt 0.894551 0.650696
vt 0.894551 0.433797
vt 0.248595 0.467360
vt 0.287877 0.252448
vt 0.287875 0.468580
vt 0.024971 0.468519
vt 0.024969 0.252357
vt 0.054601 0.250709
vt 0.054599 0.467421
vt 0.874492 0.433797
vt 0.874492 0.433797
vt 0.024973 0.684682
vt 0.024971 0.468519
vt 0.054599 0.467421
vt 0.054597 0.684133
vt 0.799604 0.747084
vt 0.764834 0.747084
vt 0.894551 0.867595
vt 0.894551 0.867595
vt 0.248596 0.902386
vt 0.248596 0.684102
vt 0.287874 0.684712
vt 0.744775 0.650694
vt 0.744775 0.867593
vt 0.590892 0.867593
vt 0.590892 0.650694
vt 0.570835 0.252409
vt 0.570834 0.468554
vt 0.819663 0.252915
vt 0.854433 0.252915
vt 0.744775 0.433796
vt 0.590892 0.433796
vt 0.874492 0.216899
vt 0.874492 0.001541
vt 0.874492 0.216899
vt 0.307931 0.252463
vt 0.307930 0.036337
vt 0.307932 0.468590
vt 0.307931 0.252463
vt 0.248596 0.684102
vt 0.248595 0.467360
vt 0.287875 0.468580
vt 0.287874 0.684712
vt 0.764834 0.000000
vt 0.754804 0.001541
vt 0.570822 0.999995
vt 0.580851 0.998454
vt 0.287874 0.999997
vt 0.297903 0.998455
vt 0.297914 0.998454
vt 0.307943 0.999995
vt 0.025448 0.000092
vt 0.015419 0.001633
vt 0.799604 1.000000
vt 0.809633 0.998459
vt 0.819663 0.000000
vt 0.809634 0.001541
vt 0.307933 0.000000
vt 0.297903 0.001541
vt 0.492514 0.022209
vt 0.502543 0.022209
vt 0.502315 0.023685
vt 0.381980 0.022209
vt 0.373689 0.023268
vt 0.371951 0.022209
vt 0.371340 0.016279
vt 0.360184 0.013845
vt 0.371954 0.014950
vt 0.492517 0.014468
vt 0.502400 0.013131
vt 0.502547 0.014618
vt 0.213819 0.014618
vt 0.222545 0.013378
vt 0.223848 0.014618
vt 0.988967 0.070121
vt 0.988967 0.068580
vt 0.223854 0.020329
vt 0.235203 0.022511
vt 0.223856 0.021877
vt 0.103294 0.022209
vt 0.088508 0.024043
vt 0.093264 0.022209
vt 0.228539 0.033253
vt 0.237001 0.032077
vt 0.238568 0.033253
vt 0.064308 0.034794
vt 0.060422 0.033565
vt 0.064627 0.033253
vt 0.959591 0.041673
vt 0.949562 0.040132
vt 0.949562 0.066859
vt 0.959591 0.065318
vt 0.799604 0.000000
vt 0.854433 0.000000
vt 0.929321 0.998030
vt 0.894551 0.998030
vt 0.764833 1.000000
vt 0.014944 0.024179
vt 0.014944 0.009755
vt 0.580863 0.009755
vt 0.580863 0.024179
vt 0.297903 0.024179
vt 0.297903 0.009755
vt 0.297903 0.009755
vt 0.297903 0.024179
vt 0.580863 0.001541
vt 0.014944 0.001541
vt 0.809633 0.001541
vt 0.809633 0.099152
vt 0.297903 0.036938
vt 0.754804 0.099152
vt 0.297903 0.001541
vt 0.297903 0.900845
vt 0.094708 0.000000
vt 0.208485 0.000000
vt 0.103286 0.014618
vt 0.371954 0.016499
vt 0.371951 0.021009
vt 0.492517 0.014618
vt 0.381984 0.014618
vt 0.502544 0.021009
vt 0.502546 0.016499
vt 0.223850 0.015818
vt 0.213827 0.022209
vt 0.093258 0.015818
vt 0.093262 0.020329
vt 0.387322 0.000000
vt 0.501099 0.000000
vt 0.501099 0.999995
vt 0.387322 0.999995
vt 0.381819 0.999995
vt 0.307933 0.999995
vt 0.570833 0.999995
vt 0.506602 0.999995
vt 0.064626 0.999997
vt 0.024973 0.999996
vt 0.238567 0.999997
vt 0.024973 0.000000
vt 0.570833 0.000000
vt 0.287874 0.000000
vt 0.988967 0.075463
vt 0.952088 0.000000
vt 0.986351 0.000000
vt 0.986351 0.020066
vt 0.952088 0.020066
vt 0.939534 0.085608
vt 0.939534 0.080266
vt 0.580863 0.036938
vt 0.297903 0.252914
vt 0.014944 0.036938
vt 0.297903 0.036938
vt 0.064627 0.034794
vt 0.064627 0.250151
vt 0.228539 0.033253
vt 0.074656 0.033253
vt 0.884522 0.001541
vt 0.884522 0.216899
vt 0.959592 0.041673
vt 0.959592 0.065318
vt 0.297903 0.684868
vt 0.014944 0.900844
vt 0.014944 0.684868
vt 0.580863 0.684867
vt 0.580863 0.900843
vt 0.238567 0.900844
vt 0.238567 0.683947
vt 0.297903 0.998454
vt 0.297903 0.900843
vt 0.754804 0.650694
vt 0.754804 0.867592
vt 0.233064 0.999997
vt 0.070128 0.999997
vt 0.064626 0.900844
vt 0.297903 0.684867
vt 0.297903 0.468891
vt 0.064626 0.467049
vt 0.064626 0.683947
vt 0.884522 0.433797
vt 0.884521 0.650696
vt 0.297903 0.252915
vt 0.297903 0.468891
vt 0.014944 0.468891
vt 0.014944 0.252915
vt 0.580863 0.252914
vt 0.580863 0.468891
vt 0.238567 0.467049
vt 0.238568 0.250151
vt 0.754804 0.216898
vt 0.754804 0.433796
vt 0.238567 0.683947
vt 0.238567 0.467049
vt 0.754804 0.433796
vt 0.754804 0.650694
vt 0.064626 0.683947
vt 0.884521 0.867595
vt 0.064626 0.467049
vt 0.238568 0.034794
vt 0.754804 0.001541
vt 0.929321 0.956093
vt 0.894551 0.956093
s 1
usemtl Material
f 36/1/1 92/2/2 2/3/3 69/4/4
f 53/5/5 52/6/5 60/7/6 61/8/6
f 63/9/7 74/10/8 46/11/9 33/12/10
f 13/13/11 114/14/12 121/15/13 59/16/14
f 28/17/15 37/18/16 77/19/17 66/20/18
f 80/21/19 58/22/20 31/23/21 41/24/22
f 48/25/23 24/26/24 55/27/25 84/28/26
f 45/29/27 42/30/28 30/31/29 34/32/30
f 71/33/31 43/34/32 46/35/9 74/36/8
f 36/37/1 69/38/4 77/39/17 37/40/16
f 95/41/33 49/42/34 89/43/35 103/44/36
f 94/45/37 97/46/38 39/47/39 44/48/40
f 32/49/41 29/50/42 57/51/43 64/52/44
f 100/53/45 86/54/46 40/55/47 98/56/48
f 71/57/31 1/58/49 93/59/50 43/60/32
f 27/61/51 25/62/52 47/63/53 38/64/54
f 17/65/55 22/66/56 53/5/5 61/67/6
f 42/30/28 45/29/27 44/48/40 39/47/39
f 35/68/57 50/69/58 96/70/59 91/71/60
f 117/72/61 62/73/62 59/16/14 121/74/13
f 78/75/63 68/76/64 90/77/65 83/78/66
f 72/79/67 73/80/68 81/81/69 85/82/70
f 1/58/49 71/83/31 69/84/4 2/3/3
f 67/85/71 70/86/72 87/87/73 88/88/74
f 58/89/20 80/90/19 84/91/26 55/92/25
f 111/93/75 15/94/76 51/95/77 3/96/78
f 65/97/79 56/98/80 23/99/81 26/100/82
f 75/101/83 76/102/84 82/103/85 79/104/86
f 86/105/46 100/106/45 103/107/36 89/108/35
f 48/109/23 84/110/26 89/111/35 49/112/34
f 92/113/2 169/114/87 10/115/88 2/3/3
f 9/116/89 1/58/49 2/3/3 10/115/88
f 104/117/90 99/118/91 106/119/92 109/117/93
f 80/120/19 41/121/22 40/122/47 86/123/46
f 168/124/94 95/125/33 103/126/36 162/127/95
f 50/69/58 35/68/57 38/64/54 47/63/53
f 172/128/96 100/129/45 98/130/48 165/131/97
f 101/132/98 171/133/99 174/133/100 107/134/101
f 105/135/102 173/136/103 163/137/104 110/138/105
f 5/139/106 8/140/107 153/141/108 128/142/109
s 0
f 125/143/110 126/144/110 123/145/110 124/146/110 118/146/110 122/147/110
s 1
f 112/148/111 113/149/112 12/150/113 16/151/114
f 62/152/62 117/153/61 115/154/115 18/155/116
f 4/156/117 54/157/118 21/158/119 120/159/120
f 56/98/80 65/97/79 64/52/44 57/51/43
f 122/160/121 155/161/122 158/161/123 125/160/123
f 114/162/124 146/163/125 156/164/126 121/165/127
s 0
f 126/144/128 125/143/128 122/143/128 121/166/128 114/167/128 113/168/128 112/169/128 111/170/128 3/171/128 4/172/128 120/173/128 119/174/128 116/175/128 115/176/128 117/177/128 118/178/128 124/146/128 123/145/128
s 1
f 147/179/129 111/93/130 3/96/131 7/180/132
f 20/181/133 19/182/134 116/183/135 119/184/136
f 54/157/118 4/156/117 3/96/78 51/95/77
f 74/185/8 63/186/7 66/187/18 77/188/17
f 8/140/107 4/156/137 120/189/138 153/141/108
f 137/190/139 136/191/140 145/192/141 148/193/142
f 138/194/143 147/195/129 7/180/132 6/196/144
f 154/197/145 144/198/146 133/199/147 127/200/148
f 140/201/149 149/202/150 152/203/100 141/204/100
f 139/205/151 172/128/96 165/206/97 134/207/152
f 135/208/153 168/209/94 162/210/95 129/211/154
f 155/161/122 130/212/155 131/213/123 158/161/123
f 146/214/125 135/215/153 129/216/154 156/217/126
f 170/218/156 167/219/157 136/191/140 137/190/139
f 8/140/107 5/139/106 6/196/144 7/180/132
f 4/156/137 8/140/107 7/180/132 3/96/131
f 149/203/150 118/220/158 124/221/100 152/202/100
f 117/222/159 150/223/160 143/224/161 115/154/162
f 119/184/163 116/183/164 144/198/146 154/197/145
f 151/225/103 123/226/103 126/227/104 157/228/104
f 169/229/87 138/230/143 6/196/144 10/115/88
f 171/133/99 140/204/149 141/201/100 174/133/100
f 127/200/148 133/199/147 166/231/165 160/232/166
f 173/136/103 142/233/103 132/234/104 163/137/104
f 148/193/142 145/192/141 113/149/167 112/148/168
f 161/235/169 102/236/170 108/236/171 164/237/123
f 160/232/166 166/231/165 97/46/38 94/45/37
f 91/71/60 96/70/59 167/219/157 170/218/156
f 1/58/49 9/116/89 159/238/172 93/239/50
f 142/233/103 151/225/103 157/228/104 132/234/104
f 130/213/155 161/237/169 164/235/123 131/212/123
f 9/116/89 5/139/106 128/240/109 159/241/172
f 150/242/160 139/243/151 134/244/152 143/245/161
f 5/139/106 9/116/89 10/115/88 6/196/144
f 11/246/173 12/150/113 13/247/11
f 14/248/174 15/94/76 16/249/114
f 17/250/55 18/155/116 19/251/134
f 20/252/133 21/158/119 22/253/56
f 23/254/81 24/26/24 25/255/52
f 26/256/82 27/61/51 28/257/15
f 29/258/42 30/31/29 31/259/21
f 32/260/41 33/12/10 34/261/30
f 67/262/71 68/263/64 69/264/4
f 70/265/72 71/266/31 72/267/67
f 73/268/68 74/269/8 75/270/83
f 76/271/84 77/272/17 78/273/63
f 79/274/86 80/275/19 81/276/69
f 82/277/85 83/78/66 84/278/26
f 85/279/70 86/280/46 87/281/73
f 88/282/74 89/283/35 90/284/65
f 99/285/91 100/286/45 101/287/98
f 102/288/170 103/289/36 104/290/90
f 105/291/102 106/119/92 107/292/101
f 108/293/171 109/117/93 110/294/105
f 11/246/173 14/295/174 16/151/114 12/150/113
f 34/32/30 30/31/29 29/258/42 32/296/41
f 19/297/134 20/298/133 22/66/56 17/65/55
f 25/62/52 27/61/51 26/256/82 23/299/81
f 48/109/23 49/112/34 50/300/58 47/301/53
f 36/37/1 37/40/16 38/302/54 35/303/57
f 44/304/40 45/305/27 46/35/9 43/34/32
f 40/122/47 41/121/22 42/306/28 39/307/39
f 27/308/51 38/302/54 37/18/16 28/17/15
f 45/305/27 34/261/30 33/12/10 46/11/9
f 24/26/24 48/25/23 47/301/53 25/309/52
f 112/148/111 16/151/114 15/310/76 111/311/75
f 94/312/37 44/304/40 43/60/32 93/59/50
f 114/313/12 13/247/11 12/150/113 113/149/112
f 41/24/22 31/23/21 30/314/29 42/306/28
f 116/315/135 19/251/134 18/155/116 115/154/115
f 56/316/80 57/317/43 58/89/20 55/92/25
f 79/274/86 82/318/85 84/91/26 80/90/19
f 69/84/4 71/83/31 70/265/72 67/262/71
f 71/33/31 74/36/8 73/319/68 72/320/67
f 74/185/8 77/188/17 76/321/84 75/322/83
f 77/39/17 69/38/4 68/323/64 78/324/63
f 80/120/19 86/123/46 85/279/70 81/325/69
f 86/105/46 89/108/35 88/282/74 87/326/73
f 89/111/35 84/110/26 83/327/66 90/328/65
f 64/329/44 65/330/79 66/187/18 63/186/7
f 52/331/5 53/332/5 54/157/118 51/95/77
f 53/333/5 22/334/56 21/158/119 54/157/118
f 51/95/77 15/94/76 14/335/174 52/336/5
f 13/13/11 59/16/14 60/337/6 11/338/173
f 62/152/62 18/155/116 17/250/55 61/339/6
f 23/340/81 56/316/80 55/27/25 24/26/24
f 28/17/15 66/20/18 65/330/79 26/341/82
f 57/317/43 29/342/42 31/23/21 58/22/20
f 63/9/7 33/12/10 32/260/41 64/329/44
f 82/277/85 76/343/84 78/75/63 83/78/66
f 67/85/71 88/88/74 90/344/65 68/345/64
f 72/346/67 85/347/70 87/87/73 70/86/72
f 75/348/83 79/349/86 81/81/69 73/80/68
f 35/303/57 91/350/60 92/2/2 36/1/1
f 160/351/166 94/312/37 93/239/50 159/238/172
f 49/42/34 95/41/33 96/352/59 50/300/58
f 39/307/39 97/353/38 98/56/48 40/55/47
f 162/127/95 103/126/36 102/354/170 161/355/169
f 99/356/91 104/357/90 103/107/36 100/106/45
f 164/237/123 108/236/171 110/358/105 163/359/104
f 105/360/102 110/361/105 109/117/93 106/119/92
f 106/119/92 99/118/91 101/292/98 107/292/101
f 108/293/171 102/293/170 104/117/90 109/117/93
f 144/362/146 116/315/164 115/154/162 143/224/161
f 146/163/125 114/162/124 113/363/167 145/364/141
f 148/365/142 112/366/168 111/93/130 147/179/129
f 150/223/160 117/222/159 118/367/158 149/368/150
f 20/369/133 119/370/136 120/159/120 21/158/119
f 152/371/100 124/372/100 123/226/103 151/225/103
f 59/16/14 62/73/62 61/373/6 60/374/6
f 117/72/61 121/74/13 122/375/175 118/367/175
f 154/376/145 127/377/148 128/142/109 153/141/108
f 156/217/126 129/216/154 130/378/155 155/379/122
f 158/161/123 131/213/123 132/380/104 157/381/104
f 166/382/165 133/383/147 134/207/152 165/206/97
f 168/209/94 135/208/153 136/384/140 167/385/157
f 170/386/156 137/387/139 138/230/143 169/229/87
f 172/128/96 139/205/151 140/388/149 171/389/99
f 174/390/100 141/391/100 142/233/103 173/136/103
f 133/383/147 144/362/146 143/245/161 134/244/152
f 135/215/153 146/214/125 145/364/141 136/384/140
f 137/387/139 148/365/142 147/195/129 138/194/143
f 139/243/151 150/242/160 149/392/150 140/393/149
f 141/394/100 152/395/100 151/225/103 142/233/103
f 119/370/163 154/376/145 153/141/108 120/189/138
f 121/165/127 156/164/126 155/396/122 122/375/121
f 125/160/123 158/161/123 157/381/104 126/397/104
f 127/377/148 160/351/166 159/241/172 128/240/109
f 129/211/154 162/210/95 161/355/169 130/398/155
f 131/212/123 164/235/123 163/359/104 132/380/104
f 97/353/38 166/382/165 165/131/97 98/130/48
f 95/125/33 168/124/94 167/385/157 96/352/59
f 91/350/60 170/386/156 169/114/87 92/113/2
f 100/129/45 172/128/96 171/389/99 101/399/98
f 107/400/101 174/390/100 173/136/103 105/135/102
f 11/401/173 60/7/6 52/6/5 14/402/174
o Cube
v 3.160696 0.003802 0.089526
v 3.160696 0.003802 -0.079888
v 3.099348 0.003802 0.089526
v 3.099348 0.003802 -0.079888
v 3.176801 0.013032 -0.072923
v 3.178035 0.017797 -0.059806
v 3.189874 0.003802 -0.059806
v 3.184609 0.003802 -0.072923
v 3.176801 0.013032 0.082556
v 3.178035 0.017797 0.069438
v 3.184609 0.003802 0.082556
v 3.189874 0.003802 0.069438
v 3.144313 0.012994 -0.072922
v 3.143106 0.017797 -0.059806
v 3.136619 0.003802 -0.072921
v 3.131392 0.003802 -0.059803
v 3.144313 0.012994 0.082557
v 3.143106 0.017797 0.069438
v 3.131392 0.003802 0.069440
v 3.136619 0.003802 0.082558
v 3.160601 0.018937 0.082556
v 3.160571 0.025375 0.069438
v 3.160601 0.018937 -0.072923
v 3.160571 0.025375 -0.059806
v 3.115453 0.013032 -0.072923
v 3.116687 0.017797 -0.059806
v 3.128526 0.003802 -0.059806
v 3.123261 0.003802 -0.072923
v 3.115453 0.013032 0.082556
v 3.116687 0.017797 0.069438
v 3.123261 0.003802 0.082556
v 3.128526 0.003802 0.069438
v 3.082965 0.012994 -0.072922
v 3.081758 0.017797 -0.059806
v 3.075271 0.003802 -0.072921
v 3.070044 0.003802 -0.059803
v 3.082965 0.012994 0.082557
v 3.081758 0.017797 0.069438
v 3.070044 0.003802 0.069440
v 3.075271 0.003802 0.082558
v 3.099253 0.018937 0.082556
v 3.099222 0.025375 0.069438
v 3.099253 0.018937 -0.072923
v 3.099222 0.025375 -0.059806
v 2.777237 0.003802 0.089526
v 2.777237 0.003802 -0.079888
v 2.715889 0.003802 0.089526
v 2.715889 0.003802 -0.079888
v 2.793343 0.013032 -0.072923
v 2.794577 0.017797 -0.059806
v 2.806416 0.003802 -0.059806
v 2.801151 0.003802 -0.072923
v 2.793343 0.013032 0.082556
v 2.794577 0.017797 0.069438
v 2.801151 0.003802 0.082556
v 2.806416 0.003802 0.069438
v 2.760855 0.012994 -0.072922
v 2.759648 0.017797 -0.059806
v 2.753160 0.003802 -0.072921
v 2.747933 0.003802 -0.059803
v 2.760855 0.012994 0.082557
v 2.759648 0.017797 0.069438
v 2.747933 0.003802 0.069440
v 2.753160 0.003802 0.082558
v 2.777143 0.018937 0.082556
v 2.777112 0.025375 0.069438
v 2.777143 0.018937 -0.072923
v 2.777112 0.025375 -0.059806
v 2.731995 0.013032 -0.072923
v 2.733228 0.017797 -0.059806
v 2.745068 0.003802 -0.059806
v 2.739803 0.003802 -0.072923
v 2.731995 0.013032 0.082556
v 2.733228 0.017797 0.069438
v 2.739803 0.003802 0.082556
v 2.745068 0.003802 0.069438
v 2.699507 0.012994 -0.072922
v 2.698300 0.017797 -0.059806
v 2.691813 0.003802 -0.072921
v 2.686585 0.003802 -0.059803
v 2.699507 0.012994 0.082557
v 2.698300 0.017797 0.069438
v 2.686585 0.003802 0.069440
v 2.691813 0.003802 0.082558
v 2.715795 0.018937 0.082556
v 2.715764 0.025375 0.069438
v 2.715795 0.018937 -0.072923
v 2.715764 0.025375 -0.059806
v 2.393779 0.003802 0.089526
v 2.393779 0.003802 -0.079888
v 2.332431 0.003802 0.089526
v 2.332431 0.003802 -0.079888
v 2.409885 0.013032 -0.072923
v 2.411118 0.017797 -0.059806
v 2.422958 0.003802 -0.059806
v 2.417693 0.003802 -0.072923
v 2.409885 0.013032 0.082556
v 2.411118 0.017797 0.069438
v 2.417693 0.003802 0.082556
v 2.422958 0.003802 0.069438
v 2.377397 0.012994 -0.072922
v 2.376190 0.017797 -0.059806
v 2.369702 0.003802 -0.072921
v 2.364475 0.003802 -0.059803
v 2.377397 0.012994 0.082557
v 2.376190 0.017797 0.069438
v 2.364475 0.003802 0.069440
v 2.369702 0.003802 0.082558
v 2.393685 0.018937 0.082556
v 2.393654 0.025375 0.069438
v 2.393685 0.018937 -0.072923
v 2.393654 0.025375 -0.059806
v 2.348536 0.013032 -0.072923
v 2.349770 0.017797 -0.059806
v 2.361610 0.003802 -0.059806
v 2.356344 0.003802 -0.072923
v 2.348536 0.013032 0.082556
v 2.349770 0.017797 0.069438
v 2.356344 0.003802 0.082556
v 2.361610 0.003802 0.069438
v 2.316048 0.012994 -0.072922
v 2.314842 0.017797 -0.059806
v 2.308354 0.003802 -0.072921
v 2.303127 0.003802 -0.059803
v 2.316048 0.012994 0.082557
v 2.314842 0.017797 0.069438
v 2.303127 0.003802 0.069440
v 2.308354 0.003802 0.082558
v 2.332337 0.018937 0.082556
v 2.332306 0.025375 0.069438
v 2.332337 0.018937 -0.072923
v 2.332306 0.025375 -0.059806
v 2.010321 0.003802 0.089526
v 2.010321 0.003802 -0.079888
v 1.948972 0.003802 0.089526
v 1.948972 0.003802 -0.079888
v 2.026426 0.013032 -0.072923
v 2.027660 0.017797 -0.059806
v 2.039499 0.003802 -0.059806
v 2.034234 0.003802 -0.072923
v 2.026426 0.013032 0.082556
v 2.027660 0.017797 0.069438
v 2.034234 0.003802 0.082556
v 2.039499 0.003802 0.069438
v 1.993938 0.012994 -0.072922
v 1.992731 0.017797 -0.059806
v 1.986244 0.003802 -0.072921
v 1.981017 0.003802 -0.059803
v 1.993938 0.012994 0.082557
v 1.992731 0.017797 0.069438
v 1.981017 0.003802 0.069440
v 1.986244 0.003802 0.082558
v 2.010226 0.018937 0.082556
v 2.010196 0.025375 0.069438
v 2.010226 0.018937 -0.072923
v 2.010196 0.025375 -0.059806
v 1.965078 0.013032 -0.072923
v 1.966312 0.017797 -0.059806
v 1.978151 0.003802 -0.059806
v 1.972886 0.003802 -0.072923
v 1.965078 0.013032 0.082556
v 1.966312 0.017797 0.069438
v 1.972886 0.003802 0.082556
v 1.978151 0.003802 0.069438
v 1.932590 0.012994 -0.072922
v 1.931383 0.017797 -0.059806
v 1.924896 0.003802 -0.072921
v 1.919669 0.003802 -0.059803
v 1.932590 0.012994 0.082557
v 1.931383 0.017797 0.069438
v 1.919669 0.003802 0.069440
v 1.924896 0.003802 0.082558
v 1.948878 0.018937 0.082556
v 1.948848 0.025375 0.069438
v 1.948878 0.018937 -0.072923
v 1.948848 0.025375 -0.059806
v 1.626862 0.003802 0.089526
v 1.626862 0.003802 -0.079888
v 1.565514 0.003802 0.089526
v 1.565514 0.003802 -0.079888
v 1.642968 0.013032 -0.072923
v 1.644202 0.017797 -0.059806
v 1.656041 0.003802 -0.059806
v 1.650776 0.003802 -0.072923
v 1.642968 0.013032 0.082556
v 1.644202 0.017797 0.069438
v 1.650776 0.003802 0.082556
v 1.656041 0.003802 0.069438
v 1.610480 0.012994 -0.072922
v 1.609273 0.017797 -0.059806
v 1.602786 0.003802 -0.072921
v 1.597558 0.003802 -0.059803
v 1.610480 0.012994 0.082557
v 1.609273 0.017797 0.069438
v 1.597558 0.003802 0.069440
v 1.602786 0.003802 0.082558
v 1.626768 0.018937 0.082556
v 1.626737 0.025375 0.069438
v 1.626768 0.018937 -0.072923
v 1.626737 0.025375 -0.059806
v 1.581620 0.013032 -0.072923
v 1.582853 0.017797 -0.059806
v 1.594693 0.003802 -0.059806
v 1.589428 0.003802 -0.072923
v 1.581620 0.013032 0.082556
v 1.582853 0.017797 0.069438
v 1.589428 0.003802 0.082556
v 1.594693 0.003802 0.069438
v 1.549132 0.012994 -0.072922
v 1.547925 0.017797 -0.059806
v 1.541437 0.003802 -0.072921
v 1.536210 0.003802 -0.059803
v 1.549132 0.012994 0.082557
v 1.547925 0.017797 0.069438
v 1.536210 0.003802 0.069440
v 1.541437 0.003802 0.082558
v 1.565420 0.018937 0.082556
v 1.565389 0.025375 0.069438
v 1.565420 0.018937 -0.072923
v 1.565389 0.025375 -0.059806
v 1.243404 0.003802 0.089526
v 1.243404 0.003802 -0.079888
v 1.182056 0.003802 0.089526
v 1.182056 0.003802 -0.079888
v 1.259510 0.013032 -0.072923
v 1.260743 0.017797 -0.059806
v 1.272583 0.003802 -0.059806
v 1.267318 0.003802 -0.072923
v 1.259510 0.013032 0.082556
v 1.260743 0.017797 0.069438
v 1.267318 0.003802 0.082556
v 1.272583 0.003802 0.069438
v 1.227021 0.012994 -0.072922
v 1.225815 0.017797 -0.059806
v 1.219327 0.003802 -0.072921
v 1.214100 0.003802 -0.059803
v 1.227021 0.012994 0.082557
v 1.225815 0.017797 0.069438
v 1.214100 0.003802 0.069440
v 1.219327 0.003802 0.082558
v 1.243310 0.018937 0.082556
v 1.243279 0.025375 0.069438
v 1.243310 0.018937 -0.072923
v 1.243279 0.025375 -0.059806
v 1.198161 0.013032 -0.072923
v 1.199395 0.017797 -0.059806
v 1.211235 0.003802 -0.059806
v 1.205969 0.003802 -0.072923
v 1.198161 0.013032 0.082556
v 1.199395 0.017797 0.069438
v 1.205969 0.003802 0.082556
v 1.211235 0.003802 0.069438
v 1.165673 0.012994 -0.072922
v 1.164467 0.017797 -0.059806
v 1.157979 0.003802 -0.072921
v 1.152752 0.003802 -0.059803
v 1.165673 0.012994 0.082557
v 1.164467 0.017797 0.069438
v 1.152752 0.003802 0.069440
v 1.157979 0.003802 0.082558
v 1.181962 0.018937 0.082556
v 1.181931 0.025375 0.069438
v 1.181962 0.018937 -0.072923
v 1.181931 0.025375 -0.059806
v 0.859946 0.003802 0.089526
v 0.859946 0.003802 -0.079888
v 0.798598 0.003802 0.089526
v 0.798598 0.003802 -0.079888
v 0.876051 0.013032 -0.072923
v 0.877285 0.017797 -0.059806
v 0.889125 0.003802 -0.059806
v 0.883859 0.003802 -0.072923
v 0.876051 0.013032 0.082556
v 0.877285 0.017797 0.069438
v 0.883859 0.003802 0.082556
v 0.889125 0.003802 0.069438
v 0.843563 0.012994 -0.072922
v 0.842356 0.017797 -0.059806
v 0.835869 0.003802 -0.072921
v 0.830642 0.003802 -0.059803
v 0.843563 0.012994 0.082557
v 0.842356 0.017797 0.069438
v 0.830642 0.003802 0.069440
v 0.835869 0.003802 0.082558
v 0.859852 0.018937 0.082556
v 0.859821 0.025375 0.069438
v 0.859852 0.018937 -0.072923
v 0.859821 0.025375 -0.059806
v 0.814703 0.013032 -0.072923
v 0.815937 0.017797 -0.059806
v 0.827776 0.003802 -0.059806
v 0.822511 0.003802 -0.072923
v 0.814703 0.013032 0.082556
v 0.815937 0.017797 0.069438
v 0.822511 0.003802 0.082556
v 0.827776 0.003802 0.069438
v 0.782215 0.012994 -0.072922
v 0.781008 0.017797 -0.059806
v 0.774521 0.003802 -0.072921
v 0.769294 0.003802 -0.059803
v 0.782215 0.012994 0.082557
v 0.781008 0.017797 0.069438
v 0.769294 0.003802 0.069440
v 0.774521 0.003802 0.082558
v 0.798503 0.018937 0.082556
v 0.798473 0.025375 0.069438
v 0.798503 0.018937 -0.072923
v 0.798473 0.025375 -0.059806
v 0.476487 0.003802 0.089526
v 0.476487 0.003802 -0.079888
v 0.415139 0.003802 0.089526
v 0.415139 0.003802 -0.079888
v 0.492593 0.013032 -0.072923
v 0.493827 0.017797 -0.059806
v 0.505666 0.003802 -0.059806
v 0.500401 0.003802 -0.072923
v 0.492593 0.013032 0.082556
v 0.493827 0.017797 0.069438
v 0.500401 0.003802 0.082556
v 0.505666 0.003802 0.069438
v 0.460105 0.012994 -0.072922
v 0.458898 0.017797 -0.059806
v 0.452410 0.003802 -0.072921
v 0.447184 0.003802 -0.059803
v 0.460105 0.012994 0.082557
v 0.458898 0.017797 0.069438
v 0.447184 0.003802 0.069440
v 0.452410 0.003802 0.082558
v 0.476393 0.018937 0.082556
v 0.476362 0.025375 0.069438
v 0.476393 0.018937 -0.072923
v 0.476362 0.025375 -0.059806
v 0.431245 0.013032 -0.072923
v 0.432478 0.017797 -0.059806
v 0.444318 0.003802 -0.059806
v 0.439053 0.003802 -0.072923
v 0.431245 0.013032 0.082556
v 0.432478 0.017797 0.069438
v 0.439053 0.003802 0.082556
v 0.444318 0.003802 0.069438
v 0.398757 0.012994 -0.072922
v 0.397550 0.017797 -0.059806
v 0.391062 0.003802 -0.072921
v 0.385835 0.003802 -0.059803
v 0.398757 0.012994 0.082557
v 0.397550 0.017797 0.069438
v 0.385835 0.003802 0.069440
v 0.391062 0.003802 0.082558
v 0.415045 0.018937 0.082556
v 0.415014 0.025375 0.069438
v 0.415045 0.018937 -0.072923
v 0.415014 0.025375 -0.059806
v 0.093029 0.003802 0.089526
v 0.093029 0.003802 -0.079888
v 0.031681 0.003802 0.089526
v 0.031681 0.003802 -0.079888
v 0.109135 0.013032 -0.072923
v 0.110368 0.017797 -0.059806
v 0.122208 0.003802 -0.059806
v 0.116943 0.003802 -0.072923
v 0.109135 0.013032 0.082556
v 0.110368 0.017797 0.069438
v 0.116943 0.003802 0.082556
v 0.122208 0.003802 0.069438
v 0.076647 0.012994 -0.072922
v 0.075440 0.017797 -0.059806
v 0.068952 0.003802 -0.072921
v 0.063725 0.003802 -0.059803
v 0.076647 0.012994 0.082557
v 0.075440 0.017797 0.069438
v 0.063725 0.003802 0.069440
v 0.068952 0.003802 0.082558
v 0.092935 0.018937 0.082556
v 0.092904 0.025375 0.069438
v 0.092935 0.018937 -0.072923
v 0.092904 0.025375 -0.059806
v 0.047786 0.013032 -0.072923
v 0.049020 0.017797 -0.059806
v 0.060859 0.003802 -0.059806
v 0.055594 0.003802 -0.072923
v 0.047786 0.013032 0.082556
v 0.049020 0.017797 0.069438
v 0.055594 0.003802 0.082556
v 0.060859 0.003802 0.069438
v 0.015298 0.012994 -0.072922
v 0.014091 0.017797 -0.059806
v 0.007604 0.003802 -0.072921
v 0.002377 0.003802 -0.059803
v 0.015298 0.012994 0.082557
v 0.014091 0.017797 0.069438
v 0.002377 0.003802 0.069440
v 0.007604 0.003802 0.082558
v 0.031586 0.018937 0.082556
v 0.031556 0.025375 0.069438
v 0.031586 0.018937 -0.072923
v 0.031556 0.025375 -0.059806
v -0.290430 0.003802 0.089526
v -0.290430 0.003802 -0.079888
v -0.351778 0.003802 0.089526
v -0.351778 0.003802 -0.079888
v -0.274324 0.013032 -0.072923
v -0.273090 0.017797 -0.059806
v -0.261250 0.003802 -0.059806
v -0.266516 0.003802 -0.072923
v -0.274324 0.013032 0.082556
v -0.273090 0.017797 0.069438
v -0.266516 0.003802 0.082556
v -0.261250 0.003802 0.069438
v -0.306812 0.012994 -0.072922
v -0.308019 0.017797 -0.059806
v -0.314506 0.003802 -0.072921
v -0.319733 0.003802 -0.059803
v -0.306812 0.012994 0.082557
v -0.308019 0.017797 0.069438
v -0.319733 0.003802 0.069440
v -0.314506 0.003802 0.082558
v -0.290524 0.018937 0.082556
v -0.290555 0.025375 0.069438
v -0.290524 0.018937 -0.072923
v -0.290555 0.025375 -0.059806
v -0.335672 0.013032 -0.072923
v -0.334438 0.017797 -0.059806
v -0.322599 0.003802 -0.059806
v -0.327864 0.003802 -0.072923
v -0.335672 0.013032 0.082556
v -0.334438 0.017797 0.069438
v -0.327864 0.003802 0.082556
v -0.322599 0.003802 0.069438
v -0.368160 0.012994 -0.072922
v -0.369367 0.017797 -0.059806
v -0.375854 0.003802 -0.072921
v -0.381082 0.003802 -0.059803
v -0.368160 0.012994 0.082557
v -0.369367 0.017797 0.069438
v -0.381082 0.003802 0.069440
v -0.375854 0.003802 0.082558
v -0.351872 0.018937 0.082556
v -0.351902 0.025375 0.069438
v -0.351872 0.018937 -0.072923
v -0.351902 0.025375 -0.059806
v -0.673888 0.003802 0.089526
v -0.673888 0.003802 -0.079888
v -0.735236 0.003802 0.089526
v -0.735236 0.003802 -0.079888
v -0.657782 0.013032 -0.072923
v -0.656549 0.017797 -0.059806
v -0.644709 0.003802 -0.059806
v -0.649974 0.003802 -0.072923
v -0.657782 0.013032 0.082556
v -0.656549 0.017797 0.069438
v -0.649974 0.003802 0.082556
v -0.644709 0.003802 0.069438
v -0.690270 0.012994 -0.072922
v -0.691477 0.017797 -0.059806
v -0.697965 0.003802 -0.072921
v -0.703192 0.003802 -0.059803
v -0.690270 0.012994 0.082557
v -0.691477 0.017797 0.069438
v -0.703192 0.003802 0.069440
v -0.697965 0.003802 0.082558
v -0.673982 0.018937 0.082556
v -0.674013 0.025375 0.069438
v -0.673982 0.018937 -0.072923
v -0.674013 0.025375 -0.059806
v -0.719130 0.013032 -0.072923
v -0.717897 0.017797 -0.059806
v -0.706057 0.003802 -0.059806
v -0.711322 0.003802 -0.072923
v -0.719130 0.013032 0.082556
v -0.717897 0.017797 0.069438
v -0.711322 0.003802 0.082556
v -0.706057 0.003802 0.069438
v -0.751618 0.012994 -0.072922
v -0.752825 0.017797 -0.059806
v -0.759313 0.003802 -0.072921
v -0.764540 0.003802 -0.059803
v -0.751619 0.012994 0.082557
v -0.752825 0.017797 0.069438
v -0.764540 0.003802 0.069440
v -0.759313 0.003802 0.082558
v -0.735330 0.018937 0.082556
v -0.735361 0.025375 0.069438
v -0.735330 0.018937 -0.072923
v -0.735361 0.025375 -0.059806
v -1.057346 0.003802 0.089526
v -1.057346 0.003802 -0.079888
v -1.118694 0.003802 0.089526
v -1.118694 0.003802 -0.079888
v -1.041241 0.013032 -0.072923
v -1.040007 0.017797 -0.059806
v -1.028167 0.003802 -0.059806
v -1.033432 0.003802 -0.072923
v -1.041241 0.013032 0.082556
v -1.040007 0.017797 0.069438
v -1.033432 0.003802 0.082556
v -1.028167 0.003802 0.069438
v -1.073729 0.012994 -0.072922
v -1.074935 0.017797 -0.059806
v -1.081423 0.003802 -0.072921
v -1.086650 0.003802 -0.059803
v -1.073729 0.012994 0.082557
v -1.074935 0.017797 0.069438
v -1.086650 0.003802 0.069440
v -1.081423 0.003802 0.082558
v -1.057440 0.018937 0.082556
v -1.057471 0.025375 0.069438
v -1.057440 0.018937 -0.072923
v -1.057471 0.025375 -0.059806
v -1.102589 0.013032 -0.072923
v -1.101355 0.017797 -0.059806
v -1.089516 0.003802 -0.059806
v -1.094780 0.003802 -0.072923
v -1.102589 0.013032 0.082556
v -1.101355 0.017797 0.069438
v -1.094780 0.003802 0.082556
v -1.089516 0.003802 0.069438
v -1.135077 0.012994 -0.072922
v -1.136283 0.017797 -0.059806
v -1.142771 0.003802 -0.072921
v -1.147998 0.003802 -0.059803
v -1.135077 0.012994 0.082557
v -1.136283 0.017797 0.069438
v -1.147998 0.003802 0.069440
v -1.142771 0.003802 0.082558
v -1.118789 0.018937 0.082556
v -1.118819 0.025375 0.069438
v -1.118789 0.018937 -0.072923
v -1.118819 0.025375 -0.059806
v -1.440804 0.003802 0.089526
v -1.440804 0.003802 -0.079888
v -1.502152 0.003802 0.089526
v -1.502152 0.003802 -0.079888
v -1.424699 0.013032 -0.072923
v -1.423465 0.017797 -0.059806
v -1.411626 0.003802 -0.059806
v -1.416891 0.003802 -0.072923
v -1.424699 0.013032 0.082556
v -1.423465 0.017797 0.069438
v -1.416891 0.003802 0.082556
v -1.411626 0.003802 0.069438
v -1.457187 0.012994 -0.072922
v -1.458394 0.017797 -0.059806
v -1.464881 0.003802 -0.072921
v -1.470108 0.003802 -0.059803
v -1.457187 0.012994 0.082557
v -1.458394 0.017797 0.069438
v -1.470108 0.003802 0.069440
v -1.464881 0.003802 0.082558
v -1.440898 0.018937 0.082556
v -1.440929 0.025375 0.069438
v -1.440898 0.018937 -0.072923
v -1.440929 0.025375 -0.059806
v -1.486047 0.013032 -0.072923
v -1.484813 0.017797 -0.059806
v -1.472973 0.003802 -0.059806
v -1.478239 0.003802 -0.072923
v -1.486047 0.013032 0.082556
v -1.484813 0.017797 0.069438
v -1.478239 0.003802 0.082556
v -1.472973 0.003802 0.069438
v -1.518535 0.012994 -0.072922
v -1.519742 0.017797 -0.059806
v -1.526229 0.003802 -0.072921
v -1.531456 0.003802 -0.059803
v -1.518535 0.012994 0.082557
v -1.519742 0.017797 0.069438
v -1.531456 0.003802 0.069440
v -1.526229 0.003802 0.082558
v -1.502247 0.018937 0.082556
v -1.502278 0.025375 0.069438
v -1.502247 0.018937 -0.072923
v -1.502278 0.025375 -0.059806
v -1.824263 0.003802 0.089526
v -1.824263 0.003802 -0.079888
v -1.885611 0.003802 0.089526
v -1.885611 0.003802 -0.079888
v -1.808157 0.013032 -0.072923
v -1.806923 0.017797 -0.059806
v -1.795084 0.003802 -0.059806
v -1.800349 0.003802 -0.072923
v -1.808157 0.013032 0.082556
v -1.806923 0.017797 0.069438
v -1.800349 0.003802 0.082556
v -1.795084 0.003802 0.069438
v -1.840645 0.012994 -0.072922
v -1.841852 0.017797 -0.059806
v -1.848339 0.003802 -0.072921
v -1.853567 0.003802 -0.059803
v -1.840645 0.012994 0.082557
v -1.841852 0.017797 0.069438
v -1.853567 0.003802 0.069440
v -1.848339 0.003802 0.082558
v -1.824357 0.018937 0.082556
v -1.824388 0.025375 0.069438
v -1.824357 0.018937 -0.072923
v -1.824388 0.025375 -0.059806
v -1.869505 0.013032 -0.072923
v -1.868272 0.017797 -0.059806
v -1.856432 0.003802 -0.059806
v -1.861697 0.003802 -0.072923
v -1.869505 0.013032 0.082556
v -1.868272 0.017797 0.069438
v -1.861697 0.003802 0.082556
v -1.856432 0.003802 0.069438
v -1.901993 0.012994 -0.072922
v -1.903200 0.017797 -0.059806
v -1.909688 0.003802 -0.072921
v -1.914915 0.003802 -0.059803
v -1.901993 0.012994 0.082557
v -1.903200 0.017797 0.069438
v -1.914915 0.003802 0.069440
v -1.909688 0.003802 0.082558
v -1.885705 0.018937 0.082556
v -1.885736 0.025375 0.069438
v -1.885705 0.018937 -0.072923
v -1.885736 0.025375 -0.059806
v -2.207721 0.003802 0.089526
v -2.207721 0.003802 -0.079888
v -2.269069 0.003802 0.089526
v -2.269069 0.003802 -0.079888
v -2.191616 0.013032 -0.072923
v -2.190382 0.017797 -0.059806
v -2.178543 0.003802 -0.059806
v -2.183807 0.003802 -0.072923
v -2.191616 0.013032 0.082556
v -2.190382 0.017797 0.069438
v -2.183807 0.003802 0.082556
v -2.178543 0.003802 0.069438
v -2.224104 0.012994 -0.072922
v -2.225310 0.017797 -0.059806
v -2.231798 0.003802 -0.072921
v -2.237025 0.003802 -0.059803
v -2.224104 0.012994 0.082557
v -2.225310 0.017797 0.069438
v -2.237025 0.003802 0.069440
v -2.231798 0.003802 0.082558
v -2.207815 0.018937 0.082556
v -2.207846 0.025375 0.069438
v -2.207815 0.018937 -0.072923
v -2.207846 0.025375 -0.059806
v -2.252964 0.013032 -0.072923
v -2.251730 0.017797 -0.059806
v -2.239890 0.003802 -0.059806
v -2.245155 0.003802 -0.072923
v -2.252964 0.013032 0.082556
v -2.251730 0.017797 0.069438
v -2.245155 0.003802 0.082556
v -2.239890 0.003802 0.069438
v -2.285451 0.012994 -0.072922
v -2.286659 0.017797 -0.059806
v -2.293146 0.003802 -0.072921
v -2.298373 0.003802 -0.059803
v -2.285451 0.012994 0.082557
v -2.286659 0.017797 0.069438
v -2.298373 0.003802 0.069440
v -2.293146 0.003802 0.082558
v -2.269164 0.018937 0.082556
v -2.269195 0.025375 0.069438
v -2.269164 0.018937 -0.072923
v -2.269195 0.025375 -0.059806
v -2.591179 0.003802 0.089526
v -2.591179 0.003802 -0.079888
v -2.652527 0.003802 0.089526
v -2.652527 0.003802 -0.079888
v -2.575074 0.013032 -0.072923
v -2.573840 0.017797 -0.059806
v -2.562001 0.003802 -0.059806
v -2.567266 0.003802 -0.072923
v -2.575074 0.013032 0.082556
v -2.573840 0.017797 0.069438
v -2.567266 0.003802 0.082556
v -2.562001 0.003802 0.069438
v -2.607562 0.012994 -0.072922
v -2.608769 0.017797 -0.059806
v -2.615256 0.003802 -0.072921
v -2.620483 0.003802 -0.059803
v -2.607562 0.012994 0.082557
v -2.608769 0.017797 0.069438
v -2.620483 0.003802 0.069440
v -2.615256 0.003802 0.082558
v -2.591273 0.018937 0.082556
v -2.591304 0.025375 0.069438
v -2.591273 0.018937 -0.072923
v -2.591304 0.025375 -0.059806
v -2.636422 0.013032 -0.072923
v -2.635189 0.017797 -0.059806
v -2.623349 0.003802 -0.059806
v -2.628614 0.003802 -0.072923
v -2.636422 0.013032 0.082556
v -2.635189 0.017797 0.069438
v -2.628614 0.003802 0.082556
v -2.623349 0.003802 0.069438
v -2.668910 0.012994 -0.072922
v -2.670117 0.017797 -0.059806
v -2.676604 0.003802 -0.072921
v -2.681831 0.003802 -0.059803
v -2.668910 0.012994 0.082557
v -2.670117 0.017797 0.069438
v -2.681831 0.003802 0.069440
v -2.676604 0.003802 0.082558
v -2.652622 0.018937 0.082556
v -2.652653 0.025375 0.069438
v -2.652622 0.018937 -0.072923
v -2.652653 0.025375 -0.059806
vn 0.0022 0.3373 0.9414
vn 0.0021 0.3371 -0.9415
vn 0.4999 0.6711 -0.5475
vn 0.6069 0.7825 -0.1395
vn 0.7611 0.6439 -0.0781
vn 0.7017 0.6097 -0.3687
vn 0.4999 0.6711 0.5474
vn 0.6069 0.7825 0.1395
vn 0.7017 0.6097 0.3687
vn 0.7611 0.6439 0.0781
vn -0.5029 0.6689 -0.5475
vn -0.6090 0.7808 -0.1395
vn -0.7047 0.6061 -0.3687
vn -0.7645 0.6399 -0.0782
vn -0.5029 0.6689 0.5474
vn -0.6090 0.7808 0.1395
vn -0.7645 0.6399 0.0782
vn -0.7047 0.6062 0.3687
vn 0.0010 0.7867 0.6173
vn -0.0005 0.9865 0.1638
vn 0.0010 0.7867 -0.6174
vn -0.0005 0.9865 -0.1638
vn -0.7048 0.6061 -0.3687
vn -0.5029 0.6689 -0.5474
vn 0.7017 0.6097 -0.3688
vn -0.7047 0.6061 -0.3688
vn -0.7645 0.6399 0.0783
vn 0.0010 0.7867 -0.6173
vn 0.4999 0.6711 -0.5474
vn 0.7016 0.6097 0.3687
vn -0.7645 0.6399 -0.0783
vt 0.155003 0.442033
vt 0.153841 0.484801
vt 0.094792 0.453156
vt 0.118293 0.441631
vt 0.119184 0.537564
vt 0.156445 0.546262
vt 0.155537 0.655559
vt 0.117090 0.657150
vt 0.191233 0.447205
vt 0.213809 0.461879
vt 0.121242 0.287218
vt 0.099710 0.272281
vt 0.157596 0.251495
vt 0.156869 0.293228
vt 0.194571 0.310526
vt 0.228575 0.297667
vt 0.228575 0.445499
vt 0.193028 0.429783
vt 0.117090 0.423741
vt 0.080542 0.434782
vt 0.085653 0.286796
vt 0.119184 0.304156
vt 0.215187 0.281199
vt 0.193267 0.293060
vt 0.156445 0.312854
vt 0.155537 0.422151
vt 0.155003 0.675441
vt 0.153841 0.718209
vt 0.094792 0.686565
vt 0.118293 0.675040
vt 0.191233 0.680614
vt 0.213809 0.695287
vt 0.121242 0.520627
vt 0.099710 0.505690
vt 0.157596 0.484903
vt 0.156869 0.526636
vt 0.194571 0.543934
vt 0.228575 0.531075
vt 0.228575 0.678907
vt 0.193028 0.663191
vt 0.080542 0.668190
vt 0.085653 0.520204
vt 0.215187 0.514608
vt 0.193267 0.526468
s 1
f 197/403/196 179/406/178 182/405/181 176/404/177
f 204/407/183 200/410/179 218/409/197 216/408/195
f 187/411/186 197/403/196 176/404/177 189/412/188
f 183/413/182 195/416/194 175/415/176 185/414/184
f 192/417/191 188/420/187 190/419/189 193/418/192
f 180/421/179 184/424/183 186/423/185 181/422/180
f 195/416/194 191/426/190 194/425/193 175/415/176
f 196/427/195 198/428/197 188/420/187 192/417/191
f 217/429/196 199/432/178 202/431/181 178/430/177
f 207/433/186 217/429/196 178/430/177 209/434/188
f 203/435/182 215/438/194 177/437/176 205/436/184
f 212/439/191 208/442/187 210/441/189 213/440/192
f 200/410/179 204/407/183 206/444/185 201/443/180
f 215/438/194 211/446/190 214/445/193 177/437/176
f 216/408/195 218/409/197 208/442/187 212/439/191
f 179/406/178 180/421/179 181/422/180 182/405/181
f 185/414/184 186/423/185 184/424/183 183/413/182
f 196/427/195 195/416/194 183/413/182 184/424/183
f 193/418/192 194/425/193 191/426/190 192/417/191
f 189/412/188 190/419/189 188/420/187 187/411/186
f 198/428/197 197/403/196 187/411/186 188/420/187
f 192/417/191 191/426/190 195/416/194 196/427/195
f 180/421/179 179/406/178 197/403/196 198/428/197
f 199/432/178 200/410/179 201/443/180 202/431/181
f 205/436/184 206/444/185 204/407/183 203/435/182
f 216/408/195 215/438/194 203/435/182 204/407/183
f 213/440/192 214/445/193 211/446/190 212/439/191
f 209/434/188 210/441/189 208/442/187 207/433/186
f 218/409/197 217/429/196 207/433/186 208/442/187
f 212/439/191 211/446/190 215/438/194 216/408/195
f 200/410/179 199/432/178 217/429/196 218/409/197
f 184/424/183 180/421/179 198/428/197 196/427/195
f 241/403/196 223/406/178 226/405/181 220/404/177
f 248/407/183 244/410/179 262/409/197 260/408/195
f 231/411/186 241/403/196 220/404/177 233/412/188
f 227/413/182 239/416/194 219/415/176 229/414/184
f 236/417/191 232/420/187 234/419/189 237/418/192
f 224/421/179 228/424/183 230/423/185 225/422/180
f 239/416/194 235/426/190 238/425/193 219/415/176
f 240/427/195 242/428/197 232/420/187 236/417/191
f 261/429/196 243/432/178 246/431/181 222/430/177
f 251/433/186 261/429/196 222/430/177 253/434/188
f 247/435/182 259/438/194 221/437/176 249/436/184
f 256/439/191 252/442/187 254/441/189 257/440/192
f 244/410/179 248/407/183 250/444/185 245/443/180
f 259/438/194 255/446/190 258/445/193 221/437/176
f 260/408/195 262/409/197 252/442/187 256/439/191
f 223/406/178 224/421/179 225/422/180 226/405/181
f 229/414/184 230/423/185 228/424/183 227/413/182
f 240/427/195 239/416/194 227/413/182 228/424/183
f 237/418/192 238/425/193 235/426/190 236/417/191
f 233/412/188 234/419/189 232/420/187 231/411/186
f 242/428/197 241/403/196 231/411/186 232/420/187
f 236/417/191 235/426/190 239/416/194 240/427/195
f 224/421/179 223/406/178 241/403/196 242/428/197
f 243/432/178 244/410/179 245/443/180 246/431/181
f 249/436/184 250/444/185 248/407/183 247/435/182
f 260/408/195 259/438/194 247/435/182 248/407/183
f 257/440/192 258/445/193 255/446/190 256/439/191
f 253/434/188 254/441/189 252/442/187 251/433/186
f 262/409/197 261/429/196 251/433/186 252/442/187
f 256/439/191 255/446/190 259/438/194 260/408/195
f 244/410/179 243/432/178 261/429/196 262/409/197
f 228/424/183 224/421/179 242/428/197 240/427/195
f 285/403/196 267/406/178 270/405/181 264/404/177
f 292/407/183 288/410/179 306/409/197 304/408/195
f 275/411/186 285/403/196 264/404/177 277/412/188
f 271/413/182 283/416/194 263/415/176 273/414/184
f 280/417/191 276/420/187 278/419/189 281/418/192
f 268/421/179 272/424/183 274/423/185 269/422/180
f 283/416/194 279/426/190 282/425/193 263/415/176
f 284/427/195 286/428/197 276/420/187 280/417/191
f 305/429/196 287/432/178 290/431/181 266/430/177
f 295/433/186 305/429/196 266/430/177 297/434/198
f 291/435/182 303/438/194 265/437/176 293/436/184
f 300/439/191 296/442/187 298/441/189 301/440/192
f 288/410/179 292/407/183 294/444/185 289/443/180
f 303/438/194 299/446/190 302/445/193 265/437/176
f 304/408/195 306/409/197 296/442/187 300/439/191
f 267/406/178 268/421/179 269/422/180 270/405/181
f 273/414/184 274/423/185 272/424/183 271/413/182
f 284/427/195 283/416/194 271/413/182 272/424/183
f 281/418/192 282/425/193 279/426/190 280/417/191
f 277/412/188 278/419/189 276/420/187 275/411/186
f 286/428/197 285/403/196 275/411/186 276/420/187
f 280/417/191 279/426/190 283/416/194 284/427/195
f 268/421/179 267/406/178 285/403/196 286/428/197
f 287/432/178 288/410/179 289/443/180 290/431/181
f 293/436/184 294/444/185 292/407/183 291/435/182
f 304/408/195 303/438/194 291/435/182 292/407/183
f 301/440/192 302/445/193 299/446/190 300/439/191
f 297/434/198 298/441/189 296/442/187 295/433/186
f 306/409/197 305/429/196 295/433/186 296/442/187
f 300/439/191 299/446/190 303/438/194 304/408/195
f 288/410/179 287/432/178 305/429/196 306/409/197
f 272/424/183 268/421/179 286/428/197 284/427/195
f 329/403/196 311/406/178 314/405/181 308/404/177
f 336/407/183 332/410/179 350/409/197 348/408/195
f 319/411/186 329/403/196 308/404/177 321/412/188
f 315/413/182 327/416/194 307/415/176 317/414/184
f 324/417/191 320/420/187 322/419/189 325/418/192
f 312/421/179 316/424/183 318/423/185 313/422/180
f 327/416/194 323/426/190 326/425/193 307/415/176
f 328/427/195 330/428/197 320/420/187 324/417/191
f 349/429/196 331/432/178 334/431/181 310/430/177
f 339/433/199 349/429/196 310/430/177 341/434/198
f 335/435/182 347/438/194 309/437/176 337/436/184
f 344/439/191 340/442/187 342/441/189 345/440/192
f 332/410/179 336/407/183 338/444/185 333/443/180
f 347/438/194 343/446/190 346/445/193 309/437/176
f 348/408/195 350/409/197 340/442/187 344/439/191
f 311/406/178 312/421/179 313/422/180 314/405/181
f 317/414/184 318/423/185 316/424/183 315/413/182
f 328/427/195 327/416/194 315/413/182 316/424/183
f 325/418/192 326/425/193 323/426/190 324/417/191
f 321/412/188 322/419/189 320/420/187 319/411/186
f 330/428/197 329/403/196 319/411/186 320/420/187
f 324/417/191 323/426/190 327/416/194 328/427/195
f 312/421/179 311/406/178 329/403/196 330/428/197
f 331/432/178 332/410/179 333/443/180 334/431/181
f 337/436/184 338/444/185 336/407/183 335/435/182
f 348/408/195 347/438/194 335/435/182 336/407/183
f 345/440/192 346/445/193 343/446/190 344/439/191
f 341/434/198 342/441/189 340/442/187 339/433/199
f 350/409/197 349/429/196 339/433/199 340/442/187
f 344/439/191 343/446/190 347/438/194 348/408/195
f 332/410/179 331/432/178 349/429/196 350/409/197
f 316/424/183 312/421/179 330/428/197 328/427/195
f 373/403/196 355/406/178 358/405/181 352/404/177
f 380/407/183 376/410/179 394/409/197 392/408/195
f 363/411/186 373/403/196 352/404/177 365/412/198
f 359/413/182 371/416/194 351/415/176 361/414/184
f 368/417/191 364/420/187 366/419/189 369/418/192
f 356/421/179 360/424/183 362/423/185 357/422/180
f 371/416/194 367/426/190 370/425/193 351/415/176
f 372/427/195 374/428/197 364/420/187 368/417/191
f 393/429/196 375/432/178 378/431/181 354/430/177
f 383/433/199 393/429/196 354/430/177 385/434/198
f 379/435/182 391/438/194 353/437/176 381/436/184
f 388/439/191 384/442/187 386/441/189 389/440/192
f 376/410/179 380/407/183 382/444/185 377/443/180
f 391/438/194 387/446/190 390/445/193 353/437/176
f 392/408/195 394/409/197 384/442/187 388/439/191
f 355/406/178 356/421/179 357/422/180 358/405/181
f 361/414/184 362/423/185 360/424/183 359/413/182
f 372/427/195 371/416/194 359/413/182 360/424/183
f 369/418/192 370/425/193 367/426/190 368/417/191
f 365/412/198 366/419/189 364/420/187 363/411/186
f 374/428/197 373/403/196 363/411/186 364/420/187
f 368/417/191 367/426/190 371/416/194 372/427/195
f 356/421/179 355/406/178 373/403/196 374/428/197
f 375/432/178 376/410/179 377/443/180 378/431/181
f 381/436/184 382/444/185 380/407/183 379/435/182
f 392/408/195 391/438/194 379/435/182 380/407/183
f 389/440/192 390/445/193 387/446/190 388/439/191
f 385/434/198 386/441/189 384/442/187 383/433/199
f 394/409/197 393/429/196 383/433/199 384/442/187
f 388/439/191 387/446/190 391/438/194 392/408/195
f 376/410/179 375/432/178 393/429/196 394/409/197
f 360/424/183 356/421/179 374/428/197 372/427/195
f 417/403/196 399/406/178 402/405/181 396/404/177
f 424/407/183 420/410/179 438/409/197 436/408/195
f 407/411/186 417/403/196 396/404/177 409/412/188
f 403/413/182 415/416/194 395/415/176 405/414/184
f 412/417/191 408/420/187 410/419/189 413/418/192
f 400/421/179 404/424/183 406/423/185 401/422/180
f 415/416/194 411/426/190 414/425/193 395/415/176
f 416/427/195 418/428/197 408/420/187 412/417/191
f 437/429/196 419/432/178 422/431/181 398/430/177
f 427/433/199 437/429/196 398/430/177 429/434/198
f 423/435/182 435/438/194 397/437/176 425/436/184
f 432/439/191 428/442/187 430/441/189 433/440/192
f 420/410/179 424/407/183 426/444/185 421/443/180
f 435/438/194 431/446/190 434/445/193 397/437/176
f 436/408/195 438/409/197 428/442/187 432/439/191
f 399/406/178 400/421/179 401/422/180 402/405/181
f 405/414/184 406/423/185 404/424/183 403/413/182
f 416/427/195 415/416/194 403/413/182 404/424/183
f 413/418/192 414/425/193 411/426/190 412/417/191
f 409/412/188 410/419/189 408/420/187 407/411/186
f 418/428/197 417/403/196 407/411/186 408/420/187
f 412/417/191 411/426/190 415/416/194 416/427/195
f 400/421/179 399/406/178 417/403/196 418/428/197
f 419/432/178 420/410/179 421/443/180 422/431/181
f 425/436/184 426/444/185 424/407/183 423/435/182
f 436/408/195 435/438/194 423/435/182 424/407/183
f 433/440/192 434/445/193 431/446/190 432/439/191
f 429/434/198 430/441/189 428/442/187 427/433/199
f 438/409/197 437/429/196 427/433/199 428/442/187
f 432/439/191 431/446/190 435/438/194 436/408/195
f 420/410/179 419/432/178 437/429/196 438/409/197
f 404/424/183 400/421/179 418/428/197 416/427/195
f 461/403/196 443/406/178 446/405/181 440/404/177
f 468/407/183 464/410/179 482/409/197 480/408/195
f 451/411/186 461/403/196 440/404/177 453/412/188
f 447/413/182 459/416/194 439/415/176 449/414/184
f 456/417/191 452/420/187 454/419/189 457/418/192
f 444/421/179 448/424/183 450/423/185 445/422/180
f 459/416/194 455/426/190 458/425/193 439/415/176
f 460/427/195 462/428/197 452/420/187 456/417/191
f 481/429/196 463/432/178 466/431/181 442/430/177
f 471/433/186 481/429/196 442/430/177 473/434/188
f 467/435/182 479/438/194 441/437/176 469/436/184
f 476/439/191 472/442/187 474/441/189 477/440/192
f 464/410/179 468/407/183 470/444/185 465/443/180
f 479/438/194 475/446/190 478/445/193 441/437/176
f 480/408/195 482/409/197 472/442/187 476/439/191
f 443/406/178 444/421/179 445/422/180 446/405/181
f 449/414/184 450/423/185 448/424/183 447/413/182
f 460/427/195 459/416/194 447/413/182 448/424/183
f 457/418/192 458/425/193 455/426/190 456/417/191
f 453/412/188 454/419/189 452/420/187 451/411/186
f 462/428/197 461/403/196 451/411/186 452/420/187
f 456/417/191 455/426/190 459/416/194 460/427/195
f 444/421/179 443/406/178 461/403/196 462/428/197
f 463/432/178 464/410/179 465/443/180 466/431/181
f 469/436/184 470/444/185 468/407/183 467/435/182
f 480/408/195 479/438/194 467/435/182 468/407/183
f 477/440/192 478/445/193 475/446/190 476/439/191
f 473/434/188 474/441/189 472/442/187 471/433/186
f 482/409/197 481/429/196 471/433/186 472/442/187
f 476/439/191 475/446/190 479/438/194 480/408/195
f 464/410/179 463/432/178 481/429/196 482/409/197
f 448/424/183 444/421/179 462/428/197 460/427/195
f 505/403/196 487/406/178 490/405/200 484/404/177
f 512/407/183 508/410/179 526/409/197 524/408/195
f 495/411/186 505/403/196 484/404/177 497/412/188
f 491/413/182 503/416/194 483/415/176 493/414/184
f 500/417/191 496/420/187 498/419/189 501/418/192
f 488/421/179 492/424/183 494/423/185 489/422/180
f 503/416/194 499/426/190 502/425/193 483/415/176
f 504/427/195 506/428/197 496/420/187 500/417/191
f 525/429/196 507/432/178 510/431/181 486/430/177
f 515/433/186 525/429/196 486/430/177 517/434/188
f 511/435/182 523/438/194 485/437/176 513/436/184
f 520/439/191 516/442/187 518/441/189 521/440/192
f 508/410/179 512/407/183 514/444/185 509/443/180
f 523/438/194 519/446/190 522/445/193 485/437/176
f 524/408/195 526/409/197 516/442/187 520/439/191
f 487/406/178 488/421/179 489/422/180 490/405/200
f 493/414/184 494/423/185 492/424/183 491/413/182
f 504/427/195 503/416/194 491/413/182 492/424/183
f 501/418/192 502/425/193 499/426/190 500/417/191
f 497/412/188 498/419/189 496/420/187 495/411/186
f 506/428/197 505/403/196 495/411/186 496/420/187
f 500/417/191 499/426/190 503/416/194 504/427/195
f 488/421/179 487/406/178 505/403/196 506/428/197
f 507/432/178 508/410/179 509/443/180 510/431/181
f 513/436/184 514/444/185 512/407/183 511/435/182
f 524/408/195 523/438/194 511/435/182 512/407/183
f 521/440/192 522/445/193 519/446/190 520/439/191
f 517/434/188 518/441/189 516/442/187 515/433/186
f 526/409/197 525/429/196 515/433/186 516/442/187
f 520/439/191 519/446/190 523/438/194 524/408/195
f 508/410/179 507/432/178 525/429/196 526/409/197
f 492/424/183 488/421/179 506/428/197 504/427/195
f 549/403/196 531/406/178 534/405/200 528/404/177
f 556/407/183 552/410/179 570/409/197 568/408/195
f 539/411/186 549/403/196 528/404/177 541/412/188
f 535/413/182 547/416/194 527/415/176 537/414/184
f 544/417/191 540/420/187 542/419/189 545/418/192
f 532/421/179 536/424/183 538/423/185 533/422/180
f 547/416/194 543/426/190 546/425/193 527/415/176
f 548/427/195 550/428/197 540/420/187 544/417/191
f 569/429/196 551/432/178 554/431/181 530/430/177
f 559/433/186 569/429/196 530/430/177 561/434/188
f 555/435/182 567/438/194 529/437/176 557/436/184
f 564/439/191 560/442/187 562/441/189 565/440/192
f 552/410/179 556/407/183 558/444/185 553/443/180
f 567/438/194 563/446/190 566/445/193 529/437/176
f 568/408/195 570/409/197 560/442/187 564/439/191
f 531/406/178 532/421/179 533/422/180 534/405/200
f 537/414/184 538/423/185 536/424/183 535/413/182
f 548/427/195 547/416/194 535/413/182 536/424/183
f 545/418/192 546/425/193 543/426/190 544/417/191
f 541/412/188 542/419/189 540/420/187 539/411/186
f 550/428/197 549/403/196 539/411/186 540/420/187
f 544/417/191 543/426/190 547/416/194 548/427/195
f 532/421/179 531/406/178 549/403/196 550/428/197
f 551/432/178 552/410/179 553/443/180 554/431/181
f 557/436/184 558/444/185 556/407/183 555/435/182
f 568/408/195 567/438/194 555/435/182 556/407/183
f 565/440/192 566/445/193 563/446/190 564/439/191
f 561/434/188 562/441/189 560/442/187 559/433/186
f 570/409/197 569/429/196 559/433/186 560/442/187
f 564/439/191 563/446/190 567/438/194 568/408/195
f 552/410/179 551/432/178 569/429/196 570/409/197
f 536/424/183 532/421/179 550/428/197 548/427/195
f 593/403/196 575/406/178 578/405/200 572/404/177
f 600/407/183 596/410/179 614/409/197 612/408/195
f 583/411/186 593/403/196 572/404/177 585/412/188
f 579/413/182 591/416/194 571/415/176 581/414/184
f 588/417/191 584/420/187 586/419/189 589/418/192
f 576/421/179 580/424/183 582/423/185 577/422/180
f 591/416/194 587/426/190 590/425/193 571/415/176
f 592/427/195 594/428/197 584/420/187 588/417/191
f 613/429/196 595/432/178 598/431/181 574/430/177
f 603/433/186 613/429/196 574/430/177 605/434/188
f 599/435/182 611/438/194 573/437/176 601/436/184
f 608/439/191 604/442/187 606/441/189 609/440/192
f 596/410/179 600/407/183 602/444/185 597/443/180
f 611/438/194 607/446/190 610/445/193 573/437/176
f 612/408/195 614/409/197 604/442/187 608/439/191
f 575/406/178 576/421/179 577/422/180 578/405/200
f 581/414/184 582/423/185 580/424/183 579/413/182
f 592/427/195 591/416/194 579/413/182 580/424/183
f 589/418/192 590/425/193 587/426/190 588/417/191
f 585/412/188 586/419/189 584/420/187 583/411/186
f 594/428/197 593/403/196 583/411/186 584/420/187
f 588/417/191 587/426/190 591/416/194 592/427/195
f 576/421/179 575/406/178 593/403/196 594/428/197
f 595/432/178 596/410/179 597/443/180 598/431/181
f 601/436/184 602/444/185 600/407/183 599/435/182
f 612/408/195 611/438/194 599/435/182 600/407/183
f 609/440/192 610/445/193 607/446/190 608/439/191
f 605/434/188 606/441/189 604/442/187 603/433/186
f 614/409/197 613/429/196 603/433/186 604/442/187
f 608/439/191 607/446/190 611/438/194 612/408/195
f 596/410/179 595/432/178 613/429/196 614/409/197
f 580/424/183 576/421/179 594/428/197 592/427/195
f 637/403/196 619/406/178 622/405/181 616/404/177
f 644/407/183 640/410/179 658/409/197 656/408/195
f 627/411/186 637/403/196 616/404/177 629/412/188
f 623/413/182 635/416/194 615/415/176 625/414/184
f 632/417/191 628/420/187 630/419/189 633/418/192
f 620/421/179 624/424/183 626/423/185 621/422/180
f 635/416/194 631/426/190 634/425/193 615/415/176
f 636/427/195 638/428/197 628/420/187 632/417/191
f 657/429/196 639/432/178 642/431/181 618/430/177
f 647/433/186 657/429/196 618/430/177 649/434/188
f 643/435/182 655/438/194 617/437/176 645/436/184
f 652/439/191 648/442/187 650/441/189 653/440/192
f 640/410/179 644/407/183 646/444/185 641/443/180
f 655/438/194 651/446/190 654/445/193 617/437/176
f 656/408/195 658/409/197 648/442/187 652/439/191
f 619/406/178 620/421/179 621/422/180 622/405/181
f 625/414/184 626/423/185 624/424/183 623/413/182
f 636/427/195 635/416/194 623/413/182 624/424/183
f 633/418/192 634/425/193 631/426/190 632/417/191
f 629/412/188 630/419/189 628/420/187 627/411/186
f 638/428/197 637/403/196 627/411/186 628/420/187
f 632/417/191 631/426/190 635/416/194 636/427/195
f 620/421/179 619/406/178 637/403/196 638/428/197
f 639/432/178 640/410/179 641/443/180 642/431/181
f 645/436/184 646/444/185 644/407/183 643/435/182
f 656/408/195 655/438/194 643/435/182 644/407/183
f 653/440/192 654/445/193 651/446/190 652/439/191
f 649/434/188 650/441/189 648/442/187 647/433/186
f 658/409/197 657/429/196 647/433/186 648/442/187
f 652/439/191 651/446/190 655/438/194 656/408/195
f 640/410/179 639/432/178 657/429/196 658/409/197
f 624/424/183 620/421/179 638/428/197 636/427/195
f 681/403/196 663/406/178 666/405/181 660/404/177
f 688/407/183 684/410/179 702/409/197 700/408/195
f 671/411/186 681/403/196 660/404/177 673/412/188
f 667/413/182 679/416/194 659/415/176 669/414/184
f 676/417/191 672/420/187 674/419/189 677/418/192
f 664/421/179 668/424/183 670/423/185 665/422/180
f 679/416/194 675/426/190 678/425/193 659/415/176
f 680/427/195 682/428/197 672/420/187 676/417/191
f 701/429/196 683/432/178 686/431/181 662/430/177
f 691/433/186 701/429/196 662/430/177 693/434/188
f 687/435/182 699/438/194 661/437/176 689/436/184
f 696/439/191 692/442/187 694/441/189 697/440/192
f 684/410/179 688/407/183 690/444/185 685/443/180
f 699/438/194 695/446/190 698/445/193 661/437/176
f 700/408/195 702/409/197 692/442/187 696/439/191
f 663/406/178 664/421/179 665/422/180 666/405/181
f 669/414/184 670/423/185 668/424/183 667/413/182
f 680/427/195 679/416/194 667/413/182 668/424/183
f 677/418/192 678/425/193 675/426/190 676/417/191
f 673/412/188 674/419/189 672/420/187 671/411/186
f 682/428/197 681/403/196 671/411/186 672/420/187
f 676/417/191 675/426/190 679/416/194 680/427/195
f 664/421/179 663/406/178 681/403/196 682/428/197
f 683/432/178 684/410/179 685/443/180 686/431/181
f 689/436/184 690/444/185 688/407/183 687/435/182
f 700/408/195 699/438/194 687/435/182 688/407/183
f 697/440/192 698/445/193 695/446/190 696/439/191
f 693/434/188 694/441/189 692/442/187 691/433/186
f 702/409/197 701/429/196 691/433/186 692/442/187
f 696/439/191 695/446/190 699/438/194 700/408/195
f 684/410/179 683/432/178 701/429/196 702/409/197
f 668/424/183 664/421/179 682/428/197 680/427/195
f 725/403/196 707/406/178 710/405/181 704/404/177
f 732/407/183 728/410/179 746/409/197 744/408/195
f 715/411/186 725/403/196 704/404/177 717/412/201
f 711/413/182 723/416/194 703/415/176 713/414/184
f 720/417/191 716/420/187 718/419/189 721/418/202
f 708/421/179 712/424/183 714/423/185 709/422/180
f 723/416/194 719/426/190 722/425/193 703/415/176
f 724/427/195 726/428/197 716/420/187 720/417/191
f 745/429/196 727/432/178 730/431/181 706/430/177
f 735/433/186 745/429/196 706/430/177 737/434/198
f 731/435/182 743/438/194 705/437/176 733/436/184
f 740/439/191 736/442/187 738/441/189 741/440/192
f 728/410/179 732/407/183 734/444/185 729/443/180
f 743/438/194 739/446/190 742/445/193 705/437/176
f 744/408/195 746/409/197 736/442/187 740/439/191
f 707/406/178 708/421/179 709/422/180 710/405/181
f 713/414/184 714/423/185 712/424/183 711/413/182
f 724/427/195 723/416/194 711/413/182 712/424/183
f 721/418/202 722/425/193 719/426/190 720/417/191
f 717/412/201 718/419/189 716/420/187 715/411/186
f 726/428/197 725/403/196 715/411/186 716/420/187
f 720/417/191 719/426/190 723/416/194 724/427/195
f 708/421/179 707/406/178 725/403/196 726/428/197
f 727/432/178 728/410/179 729/443/180 730/431/181
f 733/436/184 734/444/185 732/407/183 731/435/182
f 744/408/195 743/438/194 731/435/182 732/407/183
f 741/440/192 742/445/193 739/446/190 740/439/191
f 737/434/198 738/441/189 736/442/187 735/433/186
f 746/409/197 745/429/196 735/433/186 736/442/187
f 740/439/191 739/446/190 743/438/194 744/408/195
f 728/410/179 727/432/178 745/429/196 746/409/197
f 712/424/183 708/421/179 726/428/197 724/427/195
f 769/403/203 751/406/178 754/405/200 748/404/177
f 776/407/183 772/410/179 790/409/197 788/408/195
f 759/411/199 769/403/203 748/404/177 761/412/198
f 755/413/182 767/416/194 747/415/176 757/414/184
f 764/417/191 760/420/187 762/419/189 765/418/192
f 752/421/179 756/424/183 758/423/185 753/422/180
f 767/416/194 763/426/190 766/425/193 747/415/176
f 768/427/195 770/428/197 760/420/187 764/417/191
f 789/429/196 771/432/204 774/431/181 750/430/177
f 779/433/186 789/429/196 750/430/177 781/434/198
f 775/435/182 787/438/194 749/437/176 777/436/184
f 784/439/191 780/442/187 782/441/189 785/440/192
f 772/410/179 776/407/183 778/444/185 773/443/180
f 787/438/194 783/446/190 786/445/193 749/437/176
f 788/408/195 790/409/197 780/442/187 784/439/191
f 751/406/178 752/421/179 753/422/180 754/405/200
f 757/414/184 758/423/185 756/424/183 755/413/182
f 768/427/195 767/416/194 755/413/182 756/424/183
f 765/418/192 766/425/193 763/426/190 764/417/191
f 761/412/198 762/419/189 760/420/187 759/411/199
f 770/428/197 769/403/203 759/411/199 760/420/187
f 764/417/191 763/426/190 767/416/194 768/427/195
f 752/421/179 751/406/178 769/403/203 770/428/197
f 771/432/204 772/410/179 773/443/180 774/431/181
f 777/436/184 778/444/185 776/407/183 775/435/182
f 788/408/195 787/438/194 775/435/182 776/407/183
f 785/440/192 786/445/193 783/446/190 784/439/191
f 781/434/198 782/441/189 780/442/187 779/433/186
f 790/409/197 789/429/196 779/433/186 780/442/187
f 784/439/191 783/446/190 787/438/194 788/408/195
f 772/410/179 771/432/204 789/429/196 790/409/197
f 756/424/183 752/421/179 770/428/197 768/427/195
f 813/403/196 795/406/178 798/405/181 792/404/177
f 820/407/183 816/410/179 834/409/197 832/408/195
f 803/411/199 813/403/196 792/404/177 805/412/198
f 799/413/182 811/416/194 791/415/176 801/414/184
f 808/417/191 804/420/187 806/419/189 809/418/192
f 796/421/179 800/424/183 802/423/185 797/422/180
f 811/416/194 807/426/190 810/425/193 791/415/176
f 812/427/195 814/428/197 804/420/187 808/417/191
f 833/429/196 815/432/178 818/431/181 794/430/177
f 823/433/186 833/429/196 794/430/177 825/434/198
f 819/435/182 831/438/194 793/437/176 821/436/205
f 828/439/191 824/442/187 826/441/189 829/440/202
f 816/410/179 820/407/183 822/444/185 817/443/180
f 831/438/194 827/446/190 830/445/193 793/437/176
f 832/408/195 834/409/197 824/442/187 828/439/191
f 795/406/178 796/421/179 797/422/180 798/405/181
f 801/414/184 802/423/185 800/424/183 799/413/182
f 812/427/195 811/416/194 799/413/182 800/424/183
f 809/418/192 810/425/193 807/426/190 808/417/191
f 805/412/198 806/419/189 804/420/187 803/411/199
f 814/428/197 813/403/196 803/411/199 804/420/187
f 808/417/191 807/426/190 811/416/194 812/427/195
f 796/421/179 795/406/178 813/403/196 814/428/197
f 815/432/178 816/410/179 817/443/180 818/431/181
f 821/436/205 822/444/185 820/407/183 819/435/182
f 832/408/195 831/438/194 819/435/182 820/407/183
f 829/440/202 830/445/193 827/446/190 828/439/191
f 825/434/198 826/441/189 824/442/187 823/433/186
f 834/409/197 833/429/196 823/433/186 824/442/187
f 828/439/191 827/446/190 831/438/194 832/408/195
f 816/410/179 815/432/178 833/429/196 834/409/197
f 800/424/183 796/421/179 814/428/197 812/427/195
f 857/403/196 839/406/178 842/405/200 836/404/177
f 864/407/183 860/410/179 878/409/197 876/408/195
f 847/411/186 857/403/196 836/404/177 849/412/201
f 843/413/182 855/416/194 835/415/176 845/414/184
f 852/417/191 848/420/187 850/419/189 853/418/192
f 840/421/179 844/424/183 846/423/185 841/422/180
f 855/416/194 851/426/190 854/425/193 835/415/176
f 856/427/195 858/428/197 848/420/187 852/417/191
f 877/429/196 859/432/178 862/431/181 838/430/177
f 867/433/186 877/429/196 838/430/177 869/434/201
f 863/435/182 875/438/194 837/437/176 865/436/184
f 872/439/191 868/442/187 870/441/206 873/440/202
f 860/410/179 864/407/183 866/444/185 861/443/180
f 875/438/194 871/446/190 874/445/193 837/437/176
f 876/408/195 878/409/197 868/442/187 872/439/191
f 839/406/178 840/421/179 841/422/180 842/405/200
f 845/414/184 846/423/185 844/424/183 843/413/182
f 856/427/195 855/416/194 843/413/182 844/424/183
f 853/418/192 854/425/193 851/426/190 852/417/191
f 849/412/201 850/419/189 848/420/187 847/411/186
f 858/428/197 857/403/196 847/411/186 848/420/187
f 852/417/191 851/426/190 855/416/194 856/427/195
f 840/421/179 839/406/178 857/403/196 858/428/197
f 859/432/178 860/410/179 861/443/180 862/431/181
f 865/436/184 866/444/185 864/407/183 863/435/182
f 876/408/195 875/438/194 863/435/182 864/407/183
f 873/440/202 874/445/193 871/446/190 872/439/191
f 869/434/201 870/441/206 868/442/187 867/433/186
f 878/409/197 877/429/196 867/433/186 868/442/187
f 872/439/191 871/446/190 875/438/194 876/408/195
f 860/410/179 859/432/178 877/429/196 878/409/197
f 844/424/183 840/421/179 858/428/197 856/427/195
